<svg width="1920" height="38" viewBox="0 0 1920 38" fill="none" xmlns="http://www.w3.org/2000/svg">
<path d="M0 12H120.5L422 9L667.5 7L758 6L1098.5 13L1580 10.5H1618H1632L1644.5 9.32323L1691 9.5404L1742.5 11.5L1815 9H1920V38H0V12Z" fill="#C3D452"/>
<g filter="url(#filter0_d_321_637)">
<path d="M1954.96 7.28714C1948.91 7.32195 1942.79 7.20242 1936.63 7.15484C1930.47 6.6442 1924.26 5.04497 1918.02 6.21712C1911.79 7.32776 1905.52 6.35638 1899.25 6.92157C1892.96 6.69178 1886.68 6.84729 1880.4 6.83801C1874.12 7.67824 1867.84 6.4736 1861.58 6.8647C1858.59 8.02524 1855.61 8.21557 1852.62 7.88714C1849.63 7.43917 1846.65 6.15793 1843.66 6.8531C1840.67 9.07669 1837.69 8.09023 1834.7 8.30493C1831.7 8.05193 1828.73 6.37495 1825.73 6.84149C1819.32 5.04845 1812.84 7.73511 1806.44 6.86238C1803.25 7.03878 1800.07 9.41093 1796.93 8.01596C1793.8 8.68211 1790.68 8.68443 1787.65 7.09216C1781.81 7.597 1776.14 6.27282 1770.54 7.44729C1764.94 5.65426 1759.43 7.72582 1753.9 8.23994C1748.37 8.81673 1742.82 8.75986 1737.16 9.29139C1734.32 10.5053 1731.47 10.2837 1728.57 10.8361C1727.12 10.8512 1725.66 10.2117 1724.19 9.9645C1722.72 9.87746 1721.23 9.0883 1719.74 8.7146C1716.31 8.93278 1713 8.1587 1709.66 9.44458C1706.33 8.97456 1702.96 10.4984 1699.43 8.34439C1691.18 9.55483 1684.24 9.40164 1676.89 8.97108C1673.77 6.90068 1670.55 7.67127 1667.25 8.10184C1663.95 7.89062 1660.58 8.96063 1657.17 9.34826C1653.76 9.2821 1650.31 8.89681 1646.86 9.08597C1643.42 7.90803 1639.96 10.7444 1636.52 9.25541C1633.1 9.05232 1629.7 9.53626 1626.36 10.0446C1623.03 10.5738 1619.75 10.1885 1616.58 9.19855C1613.41 10.0179 1610.34 8.94207 1607.39 8.97224C1604.45 7.54594 1601.64 7.99158 1599.01 7.98926C1593.72 7.25348 1588.97 7.75019 1584.6 7.27437C1580.24 7.14903 1576.26 7.88134 1572.57 5.86083C1568.88 6.55484 1565.46 5.32931 1562.2 4.2442C1560.57 5.3119 1558.99 4.88946 1557.41 3.42022C1555.84 2.52312 1554.3 2.45465 1552.76 3.39817C1551.51 2.51151 1550.25 1.51345 1549 1.1119C1547.75 0.714997 1546.49 0.914609 1545.24 2.43027C1544 1.80823 1542.73 2.0473 1541.48 2.54401C1540.24 2.92931 1538.97 3.47592 1537.72 4.01441C1532.72 3.44575 1527.71 4.54826 1522.7 5.41867C1520.19 5.73898 1517.69 7.46818 1515.18 6.77882C1512.67 6.30068 1510.17 5.95368 1507.66 7.25696C1502.65 6.03839 1497.64 6.98191 1492.63 7.43917C1487.62 7.60048 1482.61 7.25928 1477.61 8.40358C1475.1 10.1096 1472.6 9.76721 1470.09 10.1432C1467.58 9.4411 1465.08 8.50222 1462.57 9.45851C1461.8 9.31228 1460.79 8.23994 1459.58 8.07514C1458.36 9.47359 1456.93 7.78501 1455.31 8.39545C1453.69 8.7088 1451.88 7.72234 1449.89 7.10145C1447.91 6.55136 1445.75 6.4353 1443.44 7.52853C1440.39 7.1734 1435.77 8.21325 1430.04 8.84342C1424.31 10.1943 1417.46 8.87011 1409.96 9.71615C1409.5 9.51305 1408.8 9.52118 1407.86 8.63452C1406.93 8.27011 1405.77 7.77108 1404.4 9.03143C1401.68 8.3618 1398.16 9.14168 1394.04 7.76412C1391.98 6.96683 1389.77 5.42447 1387.46 6.2589C1385.14 6.31576 1382.7 5.97457 1380.16 5.85271C1375.1 6.41673 1369.67 7.3382 1364.08 6.68598C1358.5 6.39004 1352.77 7.11306 1347.1 6.52118C1341.43 6.303 1335.83 6.72428 1330.52 6.85658C1324.3 8.42795 1318.41 8.26083 1312.37 7.50184C1306.33 7.2117 1300.14 9.61982 1293.36 7.88482C1288.23 8.37688 1283.53 7.13394 1279.13 7.67592C1274.74 8.10183 1270.64 5.72969 1266.69 7.06779C1262.74 7.82215 1258.93 5.65193 1255.13 5.9119C1251.33 5.48714 1247.53 6.59661 1243.58 5.56489C1239.63 5.61248 1235.54 5.89333 1231.16 5.99894C1226.77 6.2589 1222.1 4.98927 1216.98 4.84768C1211.41 3.77766 1206.63 3.65233 1202.29 5.05078C1200.13 4.34865 1198.08 4.8001 1196.09 4.43221C1194.11 4.2059 1192.21 4.25929 1190.34 5.9502C1186.59 5.27824 1182.98 6.62563 1179.17 6.86238C1175.36 7.57611 1171.35 8.97804 1166.82 7.61209C1162.17 5.98385 1157.02 8.31189 1151.6 8.07862C1148.89 10.1699 1146.11 8.13549 1143.3 8.55096C1140.49 7.99391 1137.63 8.96876 1134.77 8.18307C1129.06 8.1204 1123.3 7.13743 1117.75 7.9765C1114.98 8.04845 1112.25 8.1645 1109.61 7.47746C1106.97 7.16412 1104.4 6.0999 1101.94 7.51112C1097.03 6.6616 1092.46 6.71267 1088.15 7.33704C1083.84 6.30648 1079.8 6.6442 1075.94 6.06393C1072.07 7.82098 1068.39 4.4589 1064.83 4.83376C1061.26 4.0736 1057.8 4.68056 1054.37 4.29178C1051.5 3.84381 1048.34 3.59546 1044.92 5.15523C1043.22 3.0883 1041.45 3.32389 1039.63 4.36954C1037.8 3.83221 1035.93 6.0941 1033.99 5.97805C1030.13 8.15058 1026.05 7.09565 1021.83 6.67669C1017.59 7.23259 1013.19 7.34981 1008.67 7.16992C999.628 6.83221 990.102 8.17727 980.408 7.20822C975.231 6.60242 970.726 6.77186 966.607 6.61634C962.487 4.69565 958.763 6.27979 955.135 5.80977C953.166 5.8794 951.184 7.597 949.213 6.34478C947.244 7.9324 945.262 5.71112 943.291 5.14362C939.34 3.39004 935.389 4.52853 931.447 3.99585C927.496 4.82099 923.545 2.07747 919.605 3.1382C915.652 0.739368 911.701 4.01674 907.761 2.18192C903.808 -0.273782 899.857 1.96142 895.917 1.27438C891.964 2.28057 888.013 1.88598 884.073 0.365675C879.005 0.434147 873.935 2.62757 868.867 1.37302C863.797 1.97883 858.727 1.68057 853.659 1.76413C848.59 2.43724 843.521 3.23801 838.452 2.36412C833.383 3.35407 828.314 4.19314 823.245 3.16258C817.744 1.24072 812.243 1.91384 806.741 1.77573C803.99 3.06741 801.239 0.921573 798.487 0.760258C795.738 0.669736 792.987 -0.193706 790.236 0.388885C783.052 -0.292352 775.87 0.0697369 768.675 0.470123C761.48 0.149814 754.297 0.460839 747.113 1.34865C739.93 1.16877 732.758 1.47631 725.588 1.39043C718.428 -0.429297 711.269 1.26277 704.146 2.34672C697.011 0.13821 689.9 3.56877 682.826 1.90687C679.282 2.28405 675.75 2.62757 672.219 2.89333C668.687 3.16026 665.169 3.35058 661.661 3.41558C654.633 2.76219 647.642 2.69604 640.688 3.99352C633.733 5.30261 626.826 4.37882 619.955 4.60049C613.084 6.15329 606.262 3.95058 599.499 5.24226C596.111 6.23453 592.748 6.74516 589.385 6.41093C587.703 5.70532 586.033 7.38578 584.364 7.09565C582.695 6.58501 581.026 6.46431 579.366 5.92698C576.039 5.97805 572.724 6.52118 569.434 7.05039C566.13 7.7676 562.851 6.8264 559.583 6.87399C553.048 8.197 546.587 6.80435 540.196 7.42988C537.242 6.79043 534.07 7.52273 530.79 8.13781C527.511 7.68636 524.125 8.90029 520.713 7.83607C517.842 6.47708 515.536 7.0678 513.517 6.60822C511.5 6.45619 509.794 7.09217 508.124 7.10145C504.785 4.51345 501.626 7.33124 496.592 6.19855C491.644 7.66547 486.575 7.18501 481.397 7.41248C476.22 6.74865 470.935 7.32776 465.554 6.58965C460.173 7.46818 454.708 6.67089 449.181 7.26277C443.645 8.91189 438.035 7.36954 432.376 7.32776C426.408 8.28172 421.723 8.35948 417.219 6.70339C414.96 5.31422 412.749 5.95019 410.42 5.32931C408.101 5.64613 405.675 5.7471 403.009 5.91422C397.963 6.94014 392.965 3.04304 387.992 5.65194C383.02 6.03723 378.06 6.44923 373.099 5.8794C368.137 7.30686 363.176 5.4999 358.18 6.43182C355.681 7.09797 353.183 6.4852 350.66 7.47746C348.15 7.34981 345.615 8.1088 343.082 7.14903C337.999 6.18114 332.87 7.35213 327.657 7.31963C325.051 8.5382 322.42 7.88714 319.766 8.45232C317.111 8.8353 314.444 8.34091 311.742 8.41286C308.728 8.7088 305.615 7.15832 302.445 7.45658C300.859 7.19661 299.273 7.2001 297.664 6.73936C296.067 6.41673 294.457 6.31228 292.846 7.96489C286.409 8.24342 279.957 8.35367 273.844 8.43143C270.781 7.71422 267.815 7.70725 264.955 6.89487C262.11 7.09565 259.394 5.97108 256.836 7.22911C251.742 7.62369 247.334 7.86625 243.982 6.89836C240.246 6.35406 236.499 9.50957 232.763 8.09603C229.028 8.91537 225.281 8.40938 221.545 8.27011C217.809 8.6647 214.061 8.88868 210.325 7.75599C208.451 8.96644 206.589 7.72814 204.716 8.40706C202.842 8.93858 200.98 7.5645 199.106 9.64071C195.371 9.96682 191.622 10.1316 187.886 10.6573C184.151 11.3769 180.404 11.4465 176.668 11.0101C174.697 8.85154 172.715 11.045 170.746 9.55947C168.775 8.96296 166.793 10.7653 164.824 9.14516C162.853 9.08829 160.871 7.67824 158.902 8.29333C157.916 7.68404 156.933 6.88907 155.935 8.40125C154.949 8.59506 153.965 9.17882 152.969 7.28366C151.839 6.06741 150.602 6.55716 148.968 6.47708C147.334 5.64846 145.317 6.42253 142.626 6.39236C139.78 8.2028 136.74 6.73008 133.713 6.89836C130.674 7.2001 127.647 5.31074 124.824 6.56296C121.125 8.73549 117.413 7.30687 113.714 6.66161C110.013 7.53433 106.302 6.73124 102.602 6.86238C98.9019 8.19236 95.1915 6.87747 91.491 6.75445C87.7919 5.81325 84.0801 7.03878 80.3796 7.85464C76.6804 7.67243 72.9701 7.80938 69.2695 8.64961C65.569 9.65348 61.8572 8.44071 58.1581 8.41286C56.3085 8.09371 54.459 9.03955 52.5967 8.46624C50.7472 9.62678 48.8976 9.0117 47.0354 10.0713C43.3349 10.4218 39.6245 10.1525 35.9239 9.14864C32.2248 9.05232 28.513 9.55483 24.8125 8.64033C22.9629 9.16605 21.1134 9.997 19.2511 9.85077C17.4016 9.64767 15.552 10.2152 13.6898 9.25309C9.99066 8.50919 6.27887 8.07282 2.57975 8.78655C-1.12077 9.61054 -4.83257 9.60241 -8.53169 10.4461C-15.9426 11.3421 -23.3549 11.1622 -30.7658 11.3351C-38.1768 11.5092 -45.5891 11.602 -53 11.739C-47.078 11.6879 -34.117 14.1413 -28.1951 14.3989C-22.2731 14.2759 -16.3511 16.7664 -10.4291 15.8067C-4.50858 16.2187 1.41339 17.0368 7.33536 15.4898C10.2907 15.3993 13.2573 14.6554 16.2239 15.3494C17.703 15.7788 19.192 16.3556 20.6697 16.1966C22.1459 16.0005 23.6363 17.2295 25.1139 17.4848C28.0679 18.433 31.0359 17.2829 34.0025 18.1579C36.9565 17.7459 39.9245 18.0709 42.8911 19.1978C48.8131 19.4786 54.7351 17.4523 60.657 19.1653C63.3236 20.0821 65.8099 16.3649 68.1159 17.5219C69.2695 16.1374 70.3739 15.086 71.4318 16.5923C72.4883 16.243 73.4969 18.4573 74.459 17.5753C76.3804 18.7498 78.0976 18.968 79.6231 17.6682C81.1374 16.5506 82.4587 16.4635 83.5631 15.8461C85.5817 15.0268 87.5398 15.057 89.4245 14.5985C91.298 16.2337 93.1011 13.0898 94.783 15.3065C98.1455 17.4105 101.066 15.4956 103.298 16.792C106.806 18.0651 110.313 15.6987 113.821 15.0384C117.329 15.7997 120.836 16.9776 124.344 15.4504C126.097 15.2798 127.851 15.4736 129.605 16.6457C131.359 14.8469 133.112 16.4519 134.866 15.3761C138.374 15.5641 141.881 14.6612 145.389 14.1088C149.882 12.737 155.118 13.6272 161.377 13.532C162.986 11.2283 164.5 12.4411 165.954 12.3633C167.395 11.6647 168.775 11.2307 170.121 13.1142C172.8 13.5146 175.334 13.1525 177.941 14.1471C180.86 14.3003 183.922 15.5165 187.093 15.3819C190.266 16.1049 193.545 15.5676 196.907 15.3158C200.271 16.2929 203.718 15.4481 207.215 14.8225C210.709 14.7123 214.265 14.0368 217.833 14.6113C224.979 14.7622 232.222 16.619 239.333 14.7158C246.445 13.9324 253.424 14.6136 260.031 13.6724C263.393 11.5951 266.757 13.2662 270.145 13.5018C271.838 13.8372 273.531 14.6043 275.226 14.7726C276.919 14.6496 278.625 15.1185 280.318 13.821C283.718 13.6991 287.129 13.5657 290.553 13.5831C293.976 13.792 297.412 13.1699 300.846 12.5943C304.283 13.2245 307.742 12.7846 311.189 12.3552C314.648 11.9247 318.119 11.5057 321.591 12.1846C328.546 14.1807 335.526 12.5792 342.539 11.6763C349.555 11.5185 356.606 12.1428 363.681 11.2759C370.756 11.096 377.856 9.92272 384.991 10.9173C388.557 11.4221 392.125 10.4218 395.705 10.1827C399.284 10.5703 402.864 11.5243 406.443 10.6005C410.035 11.7448 413.627 10.3684 417.219 10.0446C420.81 11.5927 424.413 7.27089 428.029 10.3231C434.071 10.3579 440.113 10.4241 446.167 9.46779C449.194 9.41093 452.21 8.48481 455.236 9.04651C458.263 8.72969 461.279 7.29874 464.305 8.61363C464.93 9.21944 465.95 10.532 467.295 10.0144C468.641 11.3862 470.324 9.4411 472.268 10.7688C476.173 9.8322 481.156 9.73936 486.756 10.4067C492.352 10.0179 498.574 8.70067 504.929 10.7293C511.283 10.6423 517.794 13.1792 523.955 10.7467C530.13 11.6728 536.016 11.0194 541.673 10.8871C547.331 7.67476 552.774 9.2763 558.034 9.77301C560.665 9.87978 563.246 7.69913 565.794 8.55096C568.341 8.1204 570.851 8.39777 573.325 9.18114C578.275 8.09951 583.102 8.41054 587.859 8.22485C591.547 8.40706 595.235 7.30802 598.922 9.08249C602.61 8.80744 606.298 10.8071 609.985 9.78462C611.823 10.6086 613.673 10.7711 615.511 10.8361C617.349 10.8454 619.199 10.033 621.036 10.568C624.723 10.1502 628.411 11.6647 632.099 11.3479C635.978 11.0009 639.859 9.46547 643.739 10.1189C647.618 9.99932 651.499 8.89448 655.378 8.891C659.258 4.46238 663.137 9.67437 667.018 7.66315C670.898 8.3618 674.777 4.55523 678.658 6.4353C682.681 7.9707 686.717 9.09178 690.741 7.40319C692.76 11.5951 694.766 6.39004 696.784 6.96103C698.801 9.2589 700.807 7.63414 702.825 8.37108C706.141 6.52118 709.444 7.63298 712.76 7.51924C716.074 9.16605 719.378 6.84149 722.694 6.66741C727.918 7.05619 733.143 7.60629 738.369 7.44149C743.594 7.48095 748.818 7.64458 754.045 8.21557C756.062 8.95715 758.224 6.36567 760.53 6.83453C762.837 8.10764 765.287 8.93278 767.858 7.14555C770.429 7.3765 773.13 7.88366 775.942 7.2384C778.752 7.64226 781.671 5.14362 784.698 6.28211C790.26 8.45812 795.593 7.48907 800.686 7.01441C803.233 6.55716 805.731 7.22099 808.169 7.08404C810.608 8.28404 812.998 6.42602 815.329 8.64613C817.659 8.69719 819.941 8.49642 822.175 8.58694C824.41 8.79816 826.596 9.25309 828.721 9.97959C832.987 11.2457 837.071 10.3347 840.974 11.2365C842.921 11.1599 844.831 14.1413 846.693 12.8415C848.554 13.1885 850.379 15.1103 852.17 12.8183C853.057 12.3691 853.948 10.7618 854.812 12.3424C855.689 12.1962 856.542 12.7846 857.395 13.5053C859.099 12.2647 860.77 14.0914 862.404 14.0067C865.672 14.3363 868.782 15.0047 871.773 15.1428C873.274 15.086 874.728 12.9947 876.169 15.108C877.599 16.0179 879.003 17.5811 880.385 16.9185C883.136 18.4713 885.779 16.2848 888.326 18.209C888.637 19.7003 888.962 16.4426 889.274 19.8047C889.586 20.2504 889.899 20.9943 890.21 20.1726C890.836 20.8539 891.46 21.1127 892.073 19.8372C892.686 20.9246 893.298 18.9088 893.898 18.8809C894.198 19.4821 894.5 18.4956 894.8 18.057C895.1 18.6268 895.4 17.291 895.687 19.915C897.273 19.655 898.812 17.3664 900.336 20.0798C901.094 19.6945 901.85 19.6852 902.583 19.8047C903.329 19.6074 904.062 20.7099 904.794 21.9413C906.259 25.9521 907.689 22.8802 909.094 22.9626C910.511 24.831 911.905 22.6968 913.274 23.9769C913.959 23.5161 914.644 24.2716 915.328 25.3602C916.013 25.3335 916.685 24.4689 917.358 24.2693C918.703 24.1173 920.048 25.2999 921.37 26.0078C924.89 25.503 928.398 24.5885 931.916 25.0701C935.435 26.2538 938.943 22.4763 942.463 23.5034C943.339 21.9715 944.217 23.5196 945.093 21.8635C945.971 21.0778 946.847 21.1904 947.724 22.7803C949.478 21.6755 951.243 23.2109 952.997 21.8403C956.517 22.0399 960.025 22.7873 963.543 20.9966C967.064 22.0817 970.571 20.5846 974.09 20.4918C974.968 19.9811 975.844 19.3568 976.721 18.8241C977.598 18.2717 978.475 20.1819 979.351 19.279C980.229 19.7304 981.105 19.6527 981.981 20.0101C982.859 19.9057 983.735 18.7974 984.613 18.4922C986.019 21.0535 987.399 20.6589 988.781 19.8163C990.161 19.6248 991.532 18.8786 992.877 18.7974C995.579 20.2318 998.234 21.3819 1000.79 18.8032C1005.91 17.7099 1010.67 18.5769 1014.85 19.4183C1020.06 19.4484 1025.27 19.7664 1030.49 18.5432C1035.7 18.5618 1040.91 18.4713 1046.13 17.378C1051.34 16.1653 1056.55 16.4125 1061.76 16.3568C1064.37 17.5927 1066.98 16.7003 1069.59 17.1216C1070.88 16.2628 1072.19 15.8809 1073.49 16.8697C1074.79 16.3243 1076.09 15.5815 1077.39 15.3378C1080.67 15.4864 1083.88 15.6024 1087.01 16.1653C1088.58 16.4577 1090.13 18.0082 1091.66 17.4941C1093.19 19.3893 1094.7 16.5657 1096.19 17.1842C1097.68 16.8546 1099.16 19.7026 1100.61 18.7138C1101.34 19.2163 1102.06 21.245 1102.77 19.3359C1103.49 18.556 1104.2 18.0384 1104.91 18.137C1107.75 17.255 1110.5 18.6187 1113.18 19.1049C1114.51 16.9475 1115.83 19.966 1117.13 18.5014C1118.42 19.4995 1119.71 19.8709 1120.97 20.0914C1122.23 23.3525 1123.47 20.9943 1124.7 21.5943C1125.92 21.3134 1127.11 22.9568 1128.3 21.0952C1132.47 20.7123 1136.65 22.5332 1140.82 20.6658C1142.91 20.913 1144.98 20.5243 1147.07 19.9475C1149.16 17.7726 1151.24 17.6775 1153.33 18.8299C1157.5 19.0573 1161.68 18.1254 1165.85 17.7575C1167.94 15.5258 1170.02 16.6341 1172.11 16.0573C1174.2 15.433 1176.28 16.2778 1178.36 16.568C1182.53 14.255 1186.71 15.0593 1190.88 14.9966C1192.97 15.05 1195.05 14.204 1197.14 13.7177C1199.23 14.2016 1201.31 13.8488 1203.4 14.3061C1205.64 14.5092 1207.89 15.0117 1210.14 15.5247C1212.38 16.0353 1214.63 16.2697 1216.88 15.0744C1221.37 16.9985 1225.86 15.1208 1230.35 16.2848C1234.85 17.7993 1239.34 16.756 1243.83 17.1146C1248.32 19.1618 1252.81 16.2546 1257.31 18.26C1261.8 19.9393 1266.29 18.0976 1270.78 19.5018C1275.28 20.4651 1279.77 20.6229 1284.26 20.2353C1288.71 18.7521 1293.03 19.9034 1297.22 19.279C1301.41 18.2775 1305.46 18.9169 1309.39 17.898C1313.32 17.5301 1317.1 17.7749 1320.75 17.0159C1324.41 16.633 1327.91 14.6252 1331.29 15.4237C1334.65 15.8276 1337.88 13.7235 1340.97 14.6705C1344.06 14.5185 1346.99 12.9169 1349.77 12.8334C1352.59 13.2453 1355.41 11.9513 1358.22 13.619C1361.03 15.6535 1363.85 14.443 1366.66 14.9885C1368.07 14.1807 1369.47 13.6341 1370.89 14.5475C1372.3 14.2922 1373.7 15.9982 1375.12 15.9796C1377.93 15.0291 1380.75 17.0647 1383.56 17.1448C1384.55 17.0368 1385.55 17.1332 1386.53 16.1084C1387.52 15.1602 1388.51 13.4693 1389.5 14.9096C1391.48 13.8813 1393.45 13.9324 1395.43 14.6612C1397.41 15.8148 1399.38 13.8639 1401.37 13.7746C1403.35 11.8945 1405.32 11.4337 1407.3 12.1811C1410.76 12.4353 1414.22 12.65 1417.69 11.891C1421.15 11.6728 1424.62 11.4256 1428.09 12.498C1431.56 12.549 1435.03 11.2852 1438.51 11.6914C1441.98 12.2252 1445.46 12.4748 1448.93 13.2117C1452.42 14.5359 1455.89 13.3382 1459.37 13.4786C1462.86 12.5966 1466.34 13.0121 1469.82 13.8012C1476.79 12.9912 1483.75 14.1355 1490.72 14.2167C1492.42 15.1846 1494.12 15.6117 1495.85 15.0175C1497.58 14.327 1499.32 14.5811 1501.08 13.5436C1504.59 13.792 1508.14 11.963 1511.69 14.6229C1515.25 13.4659 1518.81 14.566 1522.31 13.915C1525.82 15.8032 1529.29 13.2512 1532.68 14.5452C1539.47 11.8852 1544.99 12.3668 1550.37 13.7595C1551.72 13.7885 1553.05 12.9854 1554.41 14.1506C1555.75 15.2833 1557.11 14.8121 1558.49 12.7138C1561.26 13.2361 1564.13 11.5359 1567.25 12.8601C1572.99 12.5966 1579.32 14.3862 1585.98 12.2589C1592.63 12.2775 1599.62 12.6836 1606.71 12.3842C1610.25 12.4806 1613.82 13.033 1617.38 13.2152C1620.93 10.5436 1624.49 11.5719 1627.99 13.2604C1635.02 11.8074 1641.89 12.8357 1648.38 12.4806C1651.62 13.7386 1654.77 14.8527 1657.78 13.3254C1660.8 11.5382 1663.68 14.4558 1666.42 12.2171C1667.11 11.631 1667.78 10.7374 1668.44 10.4995C1669.1 11.1146 1669.75 9.96682 1670.4 10.0956C1671.68 9.42253 1672.92 9.85309 1674.11 9.85077C1676.49 8.22137 1678.68 11.6763 1680.65 11.4732C1681.32 11.1866 1682.35 12.8717 1683.68 13.7235C1685.03 12.7939 1686.68 12.3819 1688.59 12.6442C1690.52 13.6724 1692.69 11.9397 1695.08 12.2206C1697.47 11.6589 1700.07 11.9896 1702.82 13.1978C1708.32 13.792 1714.46 11.8109 1720.79 13.5807C1723.96 13.2604 1727.18 12.4028 1730.4 12.961C1733.62 12.1301 1736.83 13.691 1739.99 13.4032C1746.32 13.185 1752.43 12.8206 1757.9 12.5432C1760.64 12.6001 1763.21 14.0705 1765.58 13.3115C1767.95 12.7765 1770.1 11.6252 1771.99 12.0976C1774.85 13.9985 1777.69 9.54207 1781 11.2492C1784.33 11.2376 1788.15 9.96102 1793.01 10.857C1796.63 8.81441 1800 8.46392 1803.27 9.16605C1806.54 9.2647 1809.71 7.60628 1812.91 11.3804C1819.37 9.17185 1825.91 9.4469 1832.52 11.4906C1839.13 9.9912 1845.81 12.8949 1852.54 11.6067C1859.28 13.4276 1866.07 8.27592 1872.92 10.2929C1879.75 9.98771 1886.65 9.33665 1893.57 10.4206C1900.48 10.5947 1907.45 10.8755 1914.43 10.1397C1921.41 8.75058 1928.42 9.74516 1935.45 9.09526C1942.48 9.35986 1949.52 8.37688 1956.56 8.76567C1963.6 8.56257 1973 7.69333 1973 7.69333C1967.09 7.16064 1961.1 7.65735 1955.04 7.2442L1954.96 7.28714Z" fill="white"/>
</g>
<defs>
<filter id="filter0_d_321_637" x="-57" y="0.0078125" width="2034" height="34" filterUnits="userSpaceOnUse" color-interpolation-filters="sRGB">
<feFlood flood-opacity="0" result="BackgroundImageFix"/>
<feColorMatrix in="SourceAlpha" type="matrix" values="0 0 0 0 0 0 0 0 0 0 0 0 0 0 0 0 0 0 127 0" result="hardAlpha"/>
<feOffset dy="4"/>
<feGaussianBlur stdDeviation="2"/>
<feComposite in2="hardAlpha" operator="out"/>
<feColorMatrix type="matrix" values="0 0 0 0 0 0 0 0 0 0 0 0 0 0 0 0 0 0 0.25 0"/>
<feBlend mode="normal" in2="BackgroundImageFix" result="effect1_dropShadow_321_637"/>
<feBlend mode="normal" in="SourceGraphic" in2="effect1_dropShadow_321_637" result="shape"/>
</filter>
</defs>
</svg>
