<svg width="189" height="197" viewBox="0 0 189 197" fill="none" xmlns="http://www.w3.org/2000/svg">
<path d="M129.119 181.341L167.395 132.732L181.515 129.118L179.404 149.627C179.404 149.627 146.521 194.85 142.393 196.371C138.266 197.898 129.092 183.516 129.119 181.341Z" fill="#C4D545"/>
<path d="M17.3441 68.8304C17.3441 68.8304 -1.79376 91.3584 0.727959 91.7253C-1.79376 91.3597 3.24968 92.0883 0.727959 91.7253C3.24968 92.0883 119.52 97.3047 119.52 97.3047L144.089 68.944L141.462 67.3641L122.592 83.2118L17.3414 68.8304H17.3441Z" fill="#C4D545"/>
<path d="M2.97365 116.445C-0.140706 121.161 -3.10273 123.24 6.8002 124.561C16.7031 125.882 117.886 129.117 117.886 129.117C117.886 129.117 149.798 85.7703 151.281 83.0511C152.765 80.3363 148.139 67.3647 148.139 67.3647L148.819 79.6088L115.2 124.719L4.47745 119.8L2.97105 116.445H2.97365Z" fill="#C4D545"/>
<path d="M25.6939 44.9062L114.035 43.6475C114.035 43.6475 110.033 23.9265 112.431 18.7345C113.173 17.1263 116.924 14.3926 119.17 11.8321C124.176 6.12623 129.119 -0.00464249 129.119 -0.00464249L45.0272 2.94232L23.9953 19.6764C23.9953 19.6764 19.5845 36.3423 25.6939 44.9062Z" fill="#C4D545"/>
<path d="M114.148 41.5532L125.282 18.1257C125.282 18.1257 127.495 12.7084 129.012 16.0598C130.529 19.4128 115.421 44.9062 115.421 44.9062L114.15 41.5548L114.148 41.5532Z" fill="#7F5BA0"/>
<path d="M114.883 37.4219C114.729 37.4219 114.575 37.3566 114.442 37.2245C114.116 36.8951 114.053 36.2713 114.296 35.8311C115.634 33.4175 117.117 31.2134 118.551 29.0777C119.049 28.3384 119.549 27.5962 120.047 26.8372C120.534 26.0934 121.02 25.3496 121.505 24.6058C123.543 21.4834 125.651 18.2547 127.864 15.2567C128.151 14.8697 128.616 14.8697 128.903 15.2567C129.19 15.6453 129.19 16.2738 128.903 16.6624C126.722 19.6133 124.631 22.8192 122.609 25.9188C122.121 26.6641 121.632 27.4125 121.145 28.1563C120.642 28.9173 120.14 29.6697 119.639 30.4135C118.164 32.6084 116.769 34.6835 115.472 37.0211C115.327 37.2837 115.106 37.4188 114.883 37.4188V37.4219Z" fill="#7F5BA0"/>
<path d="M122.341 67.3594C122.077 67.3594 121.821 67.2177 121.702 66.9718C121.534 66.6333 121.686 66.23 122.039 66.0706C123.272 65.5108 124.499 64.772 125.682 64.0558C126.555 63.5274 127.456 62.9824 128.37 62.5043C133.386 59.8746 138.312 57.1357 143.009 54.3613C143.342 54.1646 143.779 54.2649 143.984 54.5797C144.189 54.8975 144.086 55.3146 143.753 55.5114C139.034 58.2965 134.086 61.0483 129.048 63.6898C128.176 64.1472 127.292 64.6815 126.437 65.198C125.219 65.9358 123.957 66.6992 122.643 67.2915C122.543 67.3361 122.443 67.3581 122.341 67.3574V67.3594Z" fill="#7F5BA0"/>
<path d="M97.6596 44.9062C97.0741 44.9062 96.516 44.6566 96.2693 44.2417C92.9906 38.7601 89.6173 22.4266 93.2896 15.6631C93.5985 15.0981 94.478 14.8198 95.2578 15.0424C96.0376 15.2667 96.4213 15.906 96.1124 16.4727C92.754 22.6543 96.0202 38.2946 99.0523 43.3596C99.3861 43.9179 99.0323 44.5689 98.2625 44.8101C98.0632 44.8731 97.8622 44.904 97.6596 44.9029V44.9062Z" fill="#7F5BA0"/>
<path d="M120.882 54.2629C120.851 54.2635 120.82 54.262 120.788 54.2584L68.1337 49.0176L39.9555 46.1343C39.5434 46.0918 39.2502 45.7837 39.303 45.4476C39.3559 45.1105 39.7323 44.8702 40.1431 44.9144L68.32 47.7978L120.972 53.0386C121.382 53.0792 121.678 53.3864 121.628 53.7235C121.58 54.0352 121.258 54.2656 120.883 54.2656L120.882 54.2629Z" fill="#7F5BA0"/>
<path d="M8.40732 84.2031C8.20966 84.2031 8.01367 84.1348 7.84425 83.9937C7.44229 83.6537 7.36588 83.0208 7.67649 82.5761C10.9735 77.8804 14.6028 73.6551 18.4646 70.0156C18.6805 69.8138 18.9379 69.5406 19.2137 69.2477C19.7734 68.6588 20.4096 67.988 21.0225 67.5327C21.4427 67.223 22.0174 67.3445 22.2998 67.8089C22.5821 68.2703 22.4708 68.9016 22.0473 69.2112C21.5656 69.5649 20.9942 70.1704 20.4876 70.7031C20.1936 71.0128 19.9179 71.3057 19.6621 71.544C15.895 75.0969 12.3521 79.2175 9.13483 83.8055C8.95212 84.0635 8.67972 84.2001 8.404 84.2001L8.40732 84.2031Z" fill="#7F5BA0"/>
<path d="M135.087 84.2031C134.629 84.2031 134.18 84.0197 133.881 83.6739C132.985 82.6302 132.34 81.4684 131.712 80.3383C131.241 79.4949 130.792 78.6789 130.261 77.9683C129.949 77.8334 129.68 77.5993 129.53 77.2936C129.507 77.2493 129.474 77.1819 129.43 77.1144C128.786 75.9842 129.261 75.3812 129.769 75.0692C130.4 74.6896 131.294 74.8098 131.795 75.3222C132.935 76.4565 133.695 77.825 134.429 79.1428C135.014 80.1991 135.572 81.1985 136.29 82.0314C136.801 82.6239 136.675 83.4715 136.007 83.9248C135.732 84.1146 135.409 84.2031 135.087 84.2031Z" fill="#7F5BA0"/>
<path d="M134.834 84.1968C134.436 84.1968 134.029 84.0514 133.701 83.7542C132.418 82.6033 131.536 81.1458 130.687 79.7356C130.278 79.059 129.889 78.4235 129.478 77.8513C128.89 77.0292 129.037 75.8531 129.815 75.227C130.589 74.6042 131.695 74.7623 132.283 75.5843C132.781 76.2799 133.225 77.0071 133.653 77.7185C134.401 78.9484 135.098 80.1087 135.975 80.896C136.722 81.5599 136.817 82.7424 136.187 83.5328C135.838 83.9723 135.34 84.2031 134.842 84.2031L134.834 84.1968Z" fill="#7F5BA0"/>
<path d="M107.439 166.539C107.265 166.539 107.089 166.479 106.945 166.355C106.614 166.073 106.568 165.568 106.843 165.23C107.73 164.13 108.811 163.301 109.853 162.5C110.152 162.271 110.452 162.042 110.749 161.803C111.989 160.808 113.231 159.747 114.433 158.722C115.406 157.89 116.417 157.03 117.423 156.206C118.215 155.558 118.977 154.838 119.717 154.144C120.31 153.584 120.926 153.008 121.559 152.457C122.481 151.662 123.463 150.935 124.416 150.233C125.34 149.55 126.298 148.846 127.166 148.093C127.626 147.694 128.086 147.296 128.547 146.898C131.462 144.368 134.474 141.753 137.617 139.407C138.71 138.59 139.794 137.763 140.879 136.938C142 136.088 143.158 135.203 144.307 134.348C144.692 134.063 145.081 133.777 145.476 133.489C147.175 132.257 148.925 130.983 150.197 129.405C150.473 129.063 150.962 129.015 151.293 129.297C151.624 129.58 151.669 130.085 151.396 130.423C149.992 132.165 148.155 133.502 146.374 134.794C145.985 135.077 145.6 135.358 145.219 135.64C144.078 136.493 142.921 137.374 141.803 138.221C140.716 139.049 139.625 139.875 138.53 140.698C135.435 143.011 132.442 145.606 129.549 148.117C129.088 148.518 128.626 148.918 128.165 149.315C127.249 150.107 126.27 150.831 125.322 151.53C124.393 152.215 123.433 152.922 122.558 153.68C121.948 154.205 121.346 154.774 120.764 155.321C120.009 156.033 119.225 156.771 118.391 157.456C117.398 158.271 116.396 159.125 115.429 159.952C114.219 160.984 112.966 162.052 111.708 163.063C111.403 163.304 111.096 163.543 110.787 163.78C109.771 164.56 108.811 165.298 108.043 166.249C107.889 166.441 107.665 166.537 107.443 166.537L107.439 166.539Z" fill="#7F5BA0"/>
<path d="M138.774 114.148C138.71 114.148 138.648 114.148 138.588 114.147C137.392 114.125 136.512 113.89 136.612 113.627C136.894 112.908 137.249 112.188 137.595 111.494C137.772 111.141 137.944 110.788 138.11 110.432L139.007 108.523C139.073 108.383 139.136 108.244 139.196 108.104C139.326 107.82 139.448 107.533 139.598 107.249C139.6 107.241 139.606 107.233 139.614 107.225C139.664 107.148 139.774 107.058 139.837 107.01C140.163 106.76 141.335 106.615 142.471 106.678C143.607 106.744 144.298 106.999 144.032 107.252L143.896 107.382C143.757 107.647 143.634 107.924 143.511 108.199C143.444 108.34 143.388 108.481 143.315 108.622L142.418 110.532C142.247 110.889 142.075 111.244 141.9 111.598C141.558 112.288 141.202 113.001 140.93 113.708C140.837 113.957 139.88 114.146 138.771 114.146L138.774 114.148Z" fill="#7F5BA0"/>
<path d="M151.534 84.2016C151.208 84.2016 150.893 83.9883 150.7 83.6053C147.191 76.685 133.357 65.6748 129.981 64.9649C129.427 64.8496 129.046 64.1366 129.13 63.3768C129.217 62.6171 129.731 62.0909 130.286 62.2123C133.853 62.9658 144.474 71.348 149.934 78.3228L149.108 71.8431C149.047 71.3683 149.17 70.8841 149.43 70.5634C149.692 70.2442 150.052 70.1274 150.389 70.2645C150.687 70.3828 152.057 70.9401 153.652 71.7762C149.908 66.2088 143.997 58.3637 139.629 57.0155C139.081 56.8473 138.739 56.1016 138.862 55.3496C138.987 54.5976 139.531 54.1275 140.075 54.2972C147.623 56.6278 158.382 74.9257 158.837 75.7042C159.171 76.2771 159.124 77.11 158.728 77.6051C158.329 78.1002 157.719 78.0862 157.336 77.5709C156.247 76.1136 153.403 74.5661 151.397 73.6257L152.534 82.57C152.615 83.2145 152.361 83.8482 151.92 84.0988C151.793 84.1684 151.664 84.2031 151.535 84.2031L151.534 84.2016Z" fill="#7F5BA0"/>
<path d="M111.328 44.9048C111.114 44.9048 110.897 44.8426 110.699 44.7152C108.567 43.3069 107.569 39.033 107.11 35.7009C106.375 30.386 106.348 21.6738 108.584 18.949C111.278 15.6628 126.46 0.954483 127.104 0.32806C127.603 -0.153236 128.367 -0.107327 128.811 0.433205C129.256 0.973736 129.214 1.80304 128.715 2.28434C128.558 2.43539 112.995 17.5169 110.392 20.689C109.24 22.0959 108.598 28.7896 109.5 35.313C110.12 39.809 111.177 41.9622 111.958 42.4761C112.529 42.8522 112.707 43.6578 112.359 44.2769C112.133 44.6841 111.734 44.9062 111.325 44.9062L111.328 44.9048Z" fill="#7F5BA0"/>
<path d="M115.104 37.4183C114.827 37.4183 114.551 37.2874 114.362 37.029C114.03 36.579 114.092 35.9159 114.499 35.5481C116.072 34.135 123.259 25.1303 127.124 20.2053C126.644 18.0696 125.115 11.0221 125.237 8.47804C125.265 7.8959 125.714 7.45185 126.237 7.48281C126.764 7.51495 127.166 8.00899 127.138 8.58875C127.036 10.7268 128.513 17.7113 129.09 20.2244C129.166 20.5577 129.09 20.9101 128.887 21.1708C128.438 21.7458 117.853 35.254 115.702 37.1838C115.525 37.3421 115.313 37.4219 115.101 37.4219L115.104 37.4183Z" fill="#7F5BA0"/>
<path d="M27.3933 44.9062C26.5539 44.9062 25.366 44.4315 24.3816 42.2126C21.8537 36.5092 21.8022 22.3426 24.298 18.5271C27.1479 14.1678 43.754 4.26802 45.6391 3.15578C45.7804 3.07298 45.9305 3.02836 46.0895 3.02192L130.188 -0.00431824C130.774 -0.0195007 131.262 0.500744 131.28 1.17416C131.298 1.84758 130.839 2.40922 130.254 2.42992L46.3962 5.44788C41.2373 8.51137 28.1295 16.7249 25.9934 19.9898C24.1278 22.8394 23.9828 35.9352 26.2709 41.1003C26.6487 41.9532 27.0684 42.4624 27.3933 42.4624C31.4173 42.3796 109.469 41.1735 116.007 41.0727C122.77 33.3491 133.408 20.8344 134.402 18.7037C133.766 18.5271 132.162 18.6457 130.774 18.9963C130.202 19.1398 129.636 18.7244 129.509 18.0662C129.384 17.4079 129.746 16.7594 130.318 16.6131C132.059 16.1743 135.142 15.6678 136.223 17.2216C136.488 17.6025 136.86 18.4319 136.351 19.6724C135.13 22.6504 119.028 41.0603 117.196 43.1523C117.001 43.3745 116.737 43.5028 116.464 43.5056C115.616 43.5194 31.6069 44.8166 27.4379 44.9021H27.3961L27.3933 44.9062Z" fill="#7F5BA0"/>
<path d="M23.5072 22.4531C22.9343 22.4531 22.4668 21.4664 22.4557 20.2318C22.4474 18.9845 22.9107 17.9573 23.492 17.9422L113.08 14.9694C113.663 14.9239 114.14 15.946 114.149 17.1908C114.157 18.438 113.693 19.4652 113.112 19.4804L23.5239 22.4531H23.5072Z" fill="#7F5BA0"/>
<path d="M118.954 59.868H118.905C116.233 59.6923 21.739 46.3799 17.7185 45.8107C17.3035 45.753 16.9663 45.375 16.869 44.869C16.7717 44.3631 16.9403 43.8332 17.2918 43.5493L26.5739 35.9964C27.0317 35.6254 27.6452 35.7856 27.9448 36.3576C28.2431 36.9296 28.1134 37.6956 27.6543 38.0695L20.6807 43.7447C36.5551 45.9779 115.992 57.1555 118.979 57.4C121.475 56.9727 143.528 39.5339 151.843 32.9592C153.636 31.5397 155.063 30.4098 156.053 29.6382C151.791 28.3339 138.641 26.3382 126.742 24.9144C126.197 24.8498 125.799 24.2469 125.851 23.5666C125.903 22.8878 126.388 22.3903 126.93 22.4549C127.008 22.4647 134.753 23.3937 142.439 24.5589C146.965 25.2447 150.586 25.8744 153.206 26.4337C158.222 27.5061 158.857 28.1062 159.034 29.128C159.121 29.6227 159.002 30.2987 158.416 30.726C157.849 31.1364 155.774 32.7779 152.904 35.0477C129.785 53.3312 120.842 59.875 118.959 59.875L118.954 59.868Z" fill="#7F5BA0"/>
<path d="M120.649 89.8198C120.608 89.8217 120.568 89.8184 120.529 89.8099L18.4668 73.8222C18.1077 73.7657 17.8015 73.4649 17.6684 73.0357C16.4838 69.174 16.5303 48.7075 18.0818 45.5051C18.3686 44.9149 18.9732 44.7328 19.4383 45.097C19.9008 45.4613 20.0442 46.2323 19.7574 46.8225C19.3362 47.6908 18.8763 52.1668 18.8066 59.0431C18.7549 64.4029 18.9771 69.3152 19.3466 71.4289L119.498 87.1187C118.852 80.899 117.259 64.0485 118.568 60.5737C118.803 59.9496 119.389 59.6855 119.883 59.9834C120.374 60.2814 120.58 61.0311 120.345 61.658C119.422 64.1078 120.642 79.3557 121.624 88.3895C121.667 88.7749 121.566 89.1632 121.352 89.4428C121.164 89.6842 120.91 89.8156 120.649 89.8156V89.8198Z" fill="#7F5BA0"/>
<path d="M152.557 67.3594C152.247 67.3594 151.94 67.1272 151.751 66.6968C151.441 65.9932 151.549 65.0271 151.994 64.536C157.514 58.4462 163.825 51.4814 165.898 49.1634C164.876 48.6991 162.987 48.2205 161.139 48.0026C160.599 47.9419 160.191 47.1972 160.233 46.34C160.273 45.4845 160.744 44.8488 161.285 44.9077C167.873 45.6792 168.232 47.6615 168.368 48.4115C168.445 48.8491 168.539 49.9795 167.684 50.9653C167.025 51.7296 162.667 56.5461 153.117 67.0808C152.947 67.2701 152.749 67.3594 152.557 67.3594Z" fill="#7F5BA0"/>
<path d="M122.737 89.8203C122.389 89.8203 122.047 89.5926 121.832 89.1727C121.485 88.4879 121.606 87.5418 122.104 87.0645C122.104 87.0645 131.781 77.7885 142.359 67.6356C142.857 67.16 143.545 67.3269 143.892 68.0117C144.238 68.6964 144.117 69.6426 143.62 70.1198L123.364 89.5488C123.172 89.7326 122.954 89.8169 122.737 89.8169" fill="#7F5BA0"/>
<path d="M122.452 84.2031C122.19 84.2031 121.933 84.0067 121.776 83.641C121.522 83.0533 121.618 82.2579 121.99 81.8566L135.326 67.5838C135.698 67.1853 136.207 67.3376 136.463 67.921C136.716 68.5087 136.62 69.3042 136.248 69.7055L122.912 83.9783C122.771 84.1291 122.612 84.2003 122.452 84.2003V84.2031Z" fill="#7F5BA0"/>
<path d="M145.164 59.875C144.819 59.875 144.482 59.7308 144.275 59.4608C143.942 59.0271 144.067 58.4406 144.556 58.1446L156.528 50.9561C154.771 47.775 154.645 40.3838 155.064 38.2089C155.163 37.6928 155.719 37.3469 156.301 37.4326C156.887 37.5193 157.279 38.0072 157.182 38.5233C156.677 41.1482 157.218 49.0371 158.788 50.594C158.995 50.7978 159.088 51.0711 159.051 51.34C159.014 51.6099 158.844 51.8539 158.589 52.0078L145.763 59.7059C145.577 59.8186 145.368 59.8707 145.158 59.8707L145.164 59.875Z" fill="#7F5BA0"/>
<path d="M122.589 74.8516C122.27 74.8516 121.958 74.6492 121.776 74.2751C121.499 73.7071 121.639 72.9632 122.087 72.6087C125.558 69.8871 156.061 45.9843 157.706 45.0226C158.185 44.7421 158.75 45.0087 158.972 45.6158C159.191 46.2229 158.985 46.9403 158.505 47.2208C157.339 47.9033 136.688 64.0111 123.09 74.6701C122.936 74.7943 122.761 74.8516 122.589 74.8516Z" fill="#7F5BA0"/>
<path d="M114.636 97.3047C104.182 97.3047 78.4336 96.3838 59.5233 95.554C48.5477 95.0733 32.7552 94.3156 19.8651 93.458C1.40504 92.2272 0.800802 91.5973 0.360997 91.1331C0.0908495 90.8484 -0.0409616 90.4373 0.0112408 90.03C0.080409 89.4975 0.261813 88.082 7.64584 78.9998C11.4618 74.3043 15.5897 69.5962 17.0423 68.2832C17.4755 67.8911 18.0994 67.9796 18.4361 68.4818C18.7754 68.9827 18.6971 69.705 18.2651 70.0971C15.4906 72.6055 4.68466 85.5888 2.38123 89.538C7.13948 90.4879 29.1767 91.9198 60.3442 93.2822C89.6675 94.5636 116.958 95.3124 118.744 94.8887C120.792 94.2903 132.442 80.4544 142.358 67.7431C142.726 67.2713 143.354 67.2346 143.761 67.6634C144.169 68.0897 144.201 68.8183 143.831 69.2901C143.779 69.3571 138.592 76.0019 133.048 82.6833C121.657 96.4116 119.887 96.9303 119.222 97.1263C118.802 97.2503 117.166 97.3034 114.629 97.3034L114.636 97.3047Z" fill="#7F5BA0"/>
<path d="M116.049 129.117C110.653 129.117 82.905 128.013 59.3834 127.007C32.1727 125.841 3.71773 124.517 1.98115 124.24C0.707317 124.036 0.261282 123.073 0.112175 122.517C-0.562662 120.035 1.98115 116.139 3.10717 114.581C3.47865 114.065 4.09693 114.044 4.48897 114.537C4.87974 115.026 4.89516 115.843 4.52239 116.359C3.10202 118.332 1.87832 120.826 1.94773 121.59C1.98629 121.614 2.06984 121.649 2.21638 121.674C5.78209 122.245 113.885 126.819 116.738 126.519C117.137 126.406 119.296 124.918 129.353 110.663C135.38 102.119 141.89 92.3574 145.778 86.5223C146.989 84.7046 147.945 83.2707 148.497 82.4623C150.686 79.24 149.288 74.7553 147.234 69.2218C146.997 68.5832 147.197 67.8099 147.682 67.4965C148.166 67.183 148.752 67.4481 148.99 68.0867C151.291 74.2822 152.953 79.7702 149.952 84.1847C149.405 84.9858 148.452 86.4153 147.246 88.2286C143.298 94.1516 136.689 104.066 130.588 112.703C119.18 128.852 117.634 129.018 116.892 129.094C116.759 129.108 116.472 129.114 116.049 129.117Z" fill="#7F5BA0"/>
<path d="M117.121 119.758H117.105C116.818 119.753 87.9348 119.339 59.3604 118.676C42.5753 118.287 29.181 117.888 19.5461 117.494C13.8152 117.259 9.36603 117.022 6.31881 116.79C4.66423 116.663 3.38386 116.536 2.51246 116.411C1.51677 116.267 0.486331 116.118 0.284519 115.265C-0.220677 113.129 0.0934 99.2049 0.129485 97.6232C0.14285 97.0795 0.595923 96.6481 1.14923 96.6481H1.17329C1.73729 96.6595 2.18368 97.1173 2.17032 97.6678C2.03801 103.307 1.94846 111.932 2.20373 114.347C8.52537 115.733 73.3215 117.135 116.695 117.757L149.821 84.5061C150.214 84.1112 150.86 84.1009 151.265 84.4854C151.668 84.87 151.679 85.5006 151.286 85.8978L117.854 119.457C117.662 119.649 117.397 119.758 117.121 119.758Z" fill="#7F5BA0"/>
<path d="M118.164 119.753C116.779 119.753 115.573 119.313 115.377 118.706C115.112 117.873 115.268 115.985 115.553 112.719C115.899 108.792 116.623 100.648 114.929 99.3506C113.909 98.8939 113.882 98.1666 114.886 97.6941C115.935 97.2005 117.713 97.1701 118.859 97.6215C121.905 98.8266 122.038 103.086 121.171 112.814C120.948 115.335 120.739 117.715 120.948 118.379C121.157 119.042 120.084 119.654 118.543 119.745C118.415 119.753 118.285 119.758 118.154 119.758L118.164 119.753Z" fill="#7F5BA0"/>
<path d="M104.833 149.703C104.669 149.703 104.555 149.663 104.45 149.63C101.528 148.636 31.3765 123.745 30.6677 123.495C30.1341 123.305 29.8261 122.62 29.9801 121.968C30.1367 121.315 30.6969 120.938 31.2305 121.126C31.9314 121.376 100.587 145.734 104.873 147.213C105.489 147.034 109.035 145.096 127.705 126.268C137.54 116.349 146.963 106.387 149.309 103.729C148.224 102.728 144.87 100.95 141.941 99.7016C141.416 99.4766 141.138 98.7738 141.321 98.1321C141.506 97.4932 142.081 97.1529 142.605 97.3751C142.689 97.4085 144.649 98.2501 146.688 99.3196C150.867 101.514 151.381 102.577 151.537 103.396C151.646 103.97 151.511 104.541 151.166 104.966C149.845 106.596 139.297 117.788 128.346 128.812C109.526 147.752 105.986 149.702 104.831 149.702L104.833 149.703Z" fill="#7F5BA0"/>
<path d="M109.016 183.383C101.057 183.383 78.6418 175.641 68.6152 172.027C47.6114 164.459 28.0084 156.106 20.9453 151.717C18.4772 150.182 17.8352 149.344 17.6355 148.559C16.1726 142.852 16.7899 124.131 19.0103 120.274C19.328 119.723 19.9466 119.595 20.3928 119.983C20.8389 120.375 20.9427 121.139 20.6288 121.689C18.9208 124.654 18.1698 142.333 19.5109 147.749C20.8337 149.92 37.8598 158.059 63.2719 167.519C88.2507 176.817 107.212 182.146 110.455 180.767C113.08 179.654 122.422 171.961 155.506 132.962L156.403 131.908C155.336 131.827 153.602 131.901 151.929 132.121C151.385 132.192 150.895 131.708 150.838 131.036C150.778 130.363 151.173 129.761 151.717 129.692C158.234 128.826 158.735 130.186 158.948 130.77C159.07 131.101 159.263 131.962 158.455 132.88C158.273 133.087 157.719 133.74 156.876 134.731C131.438 164.72 116.036 180.988 111.1 183.081C110.61 183.289 109.903 183.381 109.018 183.381L109.016 183.383Z" fill="#7F5BA0"/>
<path d="M110.89 174.017C110.797 174.017 110.721 174.004 110.648 173.996C109.929 173.89 109.305 173.339 108.792 172.359C106.164 167.35 106.413 150.092 107.202 146.664C107.351 146.024 107.882 145.656 108.39 145.843C108.899 146.029 109.19 146.701 109.041 147.342C108.261 150.727 108.287 167.018 110.39 171.028C110.579 171.391 110.744 171.551 110.844 171.589C111.481 171.462 114.82 169.471 131.747 150.449C141.016 140.028 149.874 129.542 149.963 129.439C150.348 128.984 150.954 129.007 151.315 129.494C151.676 129.98 151.659 130.744 151.272 131.201C151.182 131.31 142.077 142.086 132.657 152.663C114.899 172.597 111.924 174.023 110.89 174.023V174.017Z" fill="#7F5BA0"/>
<path d="M149.862 136.602C148.975 136.602 148.227 136.033 148.157 135.286C147.893 132.495 146.069 126 144.821 122.836C143.226 118.799 144.731 108.029 144.746 107.922C144.858 107.14 145.711 106.575 146.647 106.672C147.584 106.765 148.257 107.475 148.145 108.258C147.584 112.203 147.069 119.403 148.073 121.943C149.269 124.966 151.262 131.805 151.569 135.06C151.643 135.847 150.941 136.536 149.999 136.597C149.949 136.599 149.903 136.601 149.862 136.602Z" fill="#7F5BA0"/>
<path d="M143.832 196.483C140.759 196.483 135.287 191.245 132.598 187.86C129.35 183.775 128.35 180.619 129.708 178.733C131.45 176.316 145.508 161.088 156.804 148.849C163.607 141.479 169.485 135.111 170.474 133.923C173.354 130.448 186.416 128.343 188.159 129.386C188.528 129.61 188.78 130.024 188.901 130.627C189.539 133.763 186.941 147.033 185.515 149.336C183.773 152.151 147.903 193.617 145.114 196.045C144.764 196.348 144.33 196.483 143.832 196.483ZM186.483 131.396C183.369 131.396 173.862 133.155 171.886 135.541C170.859 136.777 165.246 142.857 158.139 150.555C147.478 162.106 132.874 177.927 131.211 180.235C130.901 180.664 131.174 182.026 132.478 184.099C133.964 186.456 136.474 189.253 139.028 191.399C141.982 193.88 143.624 194.333 143.958 194.163C146.704 191.772 182.201 150.749 183.92 147.972C185.113 146.046 187.326 134.031 187.03 131.425C186.879 131.407 186.696 131.399 186.481 131.399L186.483 131.396Z" fill="#7F5BA0"/>
<path d="M42.8331 159.055C42.7614 159.055 42.6869 159.046 42.6096 159.028C41.5502 158.793 20.949 151.361 18.5294 149.088C16.2801 146.976 16.5821 136.781 17.685 132.47C18.225 130.36 18.9776 129.266 19.985 129.127C22.9446 128.72 44.0725 137.749 45.568 138.501C46.4185 138.929 47.1988 140.174 46.5308 146.15C46.172 149.356 45.4424 153.28 44.7164 155.911C44.2428 157.626 43.7681 159.051 42.8331 159.051V159.055ZM20.2266 131.2C19.9875 131.364 19.2639 132.639 18.8737 136.505C18.3482 141.667 18.893 146.728 19.6915 147.477C21.5434 149.217 39.1729 155.737 42.4792 156.83C42.9177 155.737 43.7101 152.639 44.319 148.793C45.2298 143.038 44.9495 140.825 44.7393 140.367C41.7012 138.877 22.511 130.963 20.2266 131.198V131.2Z" fill="#7F5BA0"/>
<path d="M105.026 181.018L104.935 181.017C103.289 180.902 64.9645 171.218 61.4048 169.65C58.9266 168.553 59.9285 162.657 61.206 157.904C63.0614 150.988 64.1654 151.053 64.7578 151.088C65.9558 151.157 99.2282 158.512 105.884 159.987C106.177 160.053 106.424 160.239 106.558 160.494C106.691 160.75 106.7 161.049 106.575 161.31C105.802 162.955 106.098 168.18 106.338 172.378C106.662 178.04 106.696 179.934 105.894 180.681C105.656 180.904 105.351 181.023 105.026 181.023V181.018ZM62.2662 167.919C65.3051 169.243 99.2321 177.886 104.479 178.995C104.625 177.802 104.459 174.887 104.323 172.477C104.085 168.331 103.843 164.064 104.383 161.617C89.5802 158.34 68.4659 153.712 65.0387 153.066C64.0342 154.785 61.6063 162.853 61.9363 166.695C62.0158 167.639 62.2411 167.888 62.2715 167.917L62.2662 167.919Z" fill="#7F5BA0"/>
<path d="M115.196 114.146C114.825 114.146 114.467 113.944 114.276 113.591C114 113.077 114.187 112.433 114.694 112.154C116.55 111.131 132.215 95.0742 142.292 84.5311C142.695 84.1096 143.356 84.0989 143.772 84.5072C144.187 84.9156 144.195 85.587 143.795 86.0073C141.206 88.7181 118.423 112.514 115.695 114.02C115.537 114.104 115.365 114.148 115.196 114.148V114.146Z" fill="#7F5BA0"/>
<path d="M122.697 149.703C122.426 149.703 122.155 149.578 121.949 149.333C121.531 148.835 121.528 148.027 121.943 147.526C122.68 146.635 123.506 145.916 124.304 145.22C124.83 144.761 125.329 144.329 125.798 143.853C126.348 143.295 126.86 142.689 127.406 142.045C127.883 141.475 128.378 140.892 128.902 140.342C130.231 138.944 131.651 137.676 133.021 136.45C133.719 135.828 134.443 135.18 135.137 134.532C136.995 132.792 138.834 130.908 140.612 129.089C142.419 127.237 144.29 125.325 146.203 123.534C146.608 123.157 147.014 122.735 147.442 122.289C148.239 121.458 149.067 120.6 149.962 119.948C150.465 119.581 151.118 119.776 151.421 120.379C151.724 120.982 151.564 121.768 151.063 122.132C150.32 122.671 149.564 123.457 148.832 124.216C148.401 124.663 147.955 125.126 147.509 125.545C145.63 127.301 143.78 129.196 141.989 131.03C140.195 132.869 138.337 134.768 136.441 136.544C135.729 137.211 134.996 137.864 134.289 138.498C132.952 139.691 131.567 140.929 130.302 142.261C129.827 142.759 129.377 143.295 128.899 143.86C128.349 144.512 127.78 145.186 127.168 145.805C126.642 146.341 126.086 146.824 125.55 147.29C124.786 147.951 124.064 148.58 123.451 149.323C123.245 149.575 122.97 149.7 122.697 149.7V149.703Z" fill="#7F5BA0"/>
<path d="M107.456 159.055C107.189 159.055 106.928 158.857 106.778 158.502C106.551 157.96 106.672 157.255 107.046 156.928C108.072 156.028 108.949 154.816 109.877 153.528C110.819 152.225 111.793 150.876 112.948 149.865C113.322 149.536 113.809 149.71 114.034 150.252C114.261 150.794 114.141 151.499 113.767 151.825C112.761 152.708 111.891 153.912 110.97 155.185C110.019 156.501 109.038 157.859 107.866 158.889C107.737 159 107.597 159.055 107.456 159.055Z" fill="#7F5BA0"/>
</svg>
