<svg width="984" height="687" viewBox="0 0 984 687" fill="none" xmlns="http://www.w3.org/2000/svg">
<path d="M979.21 43.7849H984V39H979.21V43.7849ZM979.21 682.215V687H984V682.215H979.21ZM79.3577 682.215H74.5678V687H79.3577V682.215ZM79.3577 567.429H84.1477V562.644H79.3577V567.429ZM15.7385 567.429L13.0698 563.455L0 572.214H15.7385V567.429ZM79.3577 524.794L82.0265 528.768L84.1477 527.346V524.794H79.3577ZM241.938 43.7849V48.5696H979.21V39H241.938V43.7849ZM979.21 43.7849H974.42V682.215H984V43.7849H979.21ZM979.21 682.215V677.43H79.3577V687H979.21V682.215ZM79.3577 682.215H84.1477V567.429H74.5678V682.215H79.3577ZM79.3577 567.429V562.644H15.7385V572.214H79.3577V567.429ZM15.7385 567.429L18.4072 571.402L82.0265 528.768L79.3577 524.794L76.689 520.821L13.0698 563.455L15.7385 567.429ZM79.3577 524.794H84.1477V356.988H74.5678V524.794H79.3577Z" fill="#BFD531"/>
<path d="M141 71V30.6075C141 21.4914 144.183 14.4247 150.549 9.40752C156.913 4.30649 165.988 1.17064 177.774 1.25476e-06V19.6943C170.892 20.6134 165.602 22.3279 161.902 24.8378C158.204 27.345 155.752 30.8574 154.547 35.3749H177.774V71H141ZM188.226 71V30.6075C188.226 21.4914 191.409 14.4247 197.775 9.40752C204.14 4.30649 213.215 1.17064 225 1.25476e-06V19.6943C218.117 20.6134 212.827 22.3279 209.128 24.8378C205.43 27.345 202.978 30.8574 201.773 35.3749H225V71H188.226Z" fill="#BFD531"/>
</svg>
