<svg width="1920" height="212" viewBox="0 0 1920 212" fill="none" xmlns="http://www.w3.org/2000/svg">
<g clip-path="url(#clip0_522_666)">
<g filter="url(#filter0_d_522_666)">
<path d="M1920 1080.91L1915.56 8.48438C1915.56 3.79907 1911.5 0.0222168 1906.54 0.0222168H1750.47V32.3018C1765.88 35.3919 1777.42 48.2687 1777.42 63.7468C1777.42 81.5044 1762.16 95.9023 1743.37 95.9023C1724.58 95.9023 1709.33 81.5044 1709.33 63.7468C1709.33 48.2937 1720.89 35.3919 1736.28 32.3018V-0.00280762H1619.9V32.2767C1635.31 35.3669 1646.85 48.2449 1646.85 63.7218C1646.85 81.4806 1631.59 95.8785 1612.8 95.8785C1594.01 95.8785 1578.75 81.4806 1578.75 63.7218C1578.75 48.2687 1590.32 35.3669 1605.71 32.2767V-0.00280762H1489.32V32.2767C1504.74 35.3669 1516.27 48.2449 1516.27 63.7218C1516.27 81.4806 1501.02 95.8785 1482.23 95.8785C1463.44 95.8785 1448.18 81.4806 1448.18 63.7218C1448.18 48.2687 1459.75 35.3669 1475.13 32.2767V-0.00280762H1358.75V32.2767C1374.16 35.3669 1385.7 48.2449 1385.7 63.7218C1385.7 81.4806 1370.45 95.8785 1351.65 95.8785C1332.86 95.8785 1317.61 81.4806 1317.61 63.7218C1317.61 48.2687 1329.17 35.3669 1344.56 32.2767V-0.00280762H1228.18V32.2767C1243.59 35.3669 1255.13 48.2449 1255.13 63.7218C1255.13 81.4806 1239.87 95.8785 1221.08 95.8785C1202.29 95.8785 1187.04 81.4806 1187.04 63.7218C1187.04 48.2687 1198.6 35.3669 1213.99 32.2767V-0.00280762H1097.6V32.2767C1113.02 35.3669 1124.55 48.2449 1124.55 63.7218C1124.55 81.4806 1109.3 95.8785 1090.51 95.8785C1071.72 95.8785 1056.46 81.4806 1056.46 63.7218C1056.46 48.2687 1068.03 35.3669 1083.41 32.2767V-0.00280762H967.03V32.2767C982.442 35.3669 993.981 48.2449 993.981 63.7218C993.981 81.4806 978.726 95.8785 959.908 95.8785C941.093 95.8785 925.863 81.4806 925.863 63.7218C925.863 48.2687 937.429 35.3669 952.813 32.2767V-0.00280762H836.431V32.2767C851.843 35.3669 863.383 48.2449 863.383 63.7218C863.383 81.4806 848.126 95.8785 829.31 95.8785C810.494 95.8785 795.262 81.4806 795.262 63.7218C795.262 48.2687 806.828 35.3669 822.215 32.2767V-0.00280762H705.832V32.2767C721.245 35.3669 732.783 48.2449 732.783 63.7218C732.783 81.4806 717.528 95.8785 698.737 95.8785C679.947 95.8785 664.664 81.4806 664.664 63.7218C664.664 48.2687 676.23 35.3669 691.616 32.2767V-0.00280762H575.234V32.2767C590.645 35.3669 602.184 48.2449 602.184 63.7218C602.184 81.4806 586.929 95.8785 568.138 95.8785C549.347 95.8785 534.065 81.4806 534.065 63.7218C534.065 48.2687 545.631 35.3669 561.016 32.2767V-0.00280762H444.636V32.2767C460.047 35.3669 471.586 48.2449 471.586 63.7218C471.586 81.4806 456.331 95.8785 437.541 95.8785C418.749 95.8785 403.493 81.4806 403.493 63.7218C403.493 48.2687 415.059 35.3669 430.445 32.2767V-0.00280762H314.063V32.2767C329.474 35.3669 341.013 48.2449 341.013 63.7218C341.013 81.4806 325.758 95.8785 306.968 95.8785C288.176 95.8785 272.92 81.4806 272.92 63.7218C272.92 48.2687 284.486 35.3669 299.872 32.2767V-0.00280762H183.49V32.2767C198.901 35.3669 210.44 48.2449 210.44 63.7218C210.44 81.4806 195.185 95.8785 176.395 95.8785C157.603 95.8785 142.347 81.4806 142.347 63.7218C142.347 48.2687 153.913 35.3669 169.299 32.2767V-0.00280762H11.2796C5.04207 -0.00280762 0 4.75642 0 10.6434V1140.22C40.9336 1140.22 86.5213 1108.28 125.271 1120.72C136.888 1124.44 152.014 1131.36 159.214 1122.02C160.514 1120.32 161.319 1118.24 163.035 1116.91C166.595 1114.22 171.845 1116.15 175.899 1118.14C191.39 1125.7 207.218 1132.61 223.357 1138.84C227.931 1140.61 232.687 1142.35 237.626 1142.35C243.68 1142.35 249.372 1139.77 254.831 1137.22C272.686 1128.91 289.682 1118.7 308.368 1112.28C329.057 1105.16 394.915 1129.5 394.915 1129.5C414.954 1115.98 475.095 1126.8 475.095 1126.8L626.849 1151.11L729.924 1118.68L772.86 1126.8L804.36 1107.89L844.436 1126.8C844.436 1126.8 878.794 1115.98 901.691 1118.68C924.588 1121.38 964.692 1142.99 964.692 1142.99L1004.77 1134.89L1036.27 1148.41C1036.27 1148.41 1084.95 1132.2 1104.98 1129.5C1125.02 1126.8 1236.7 1153.8 1236.7 1153.8C1236.7 1153.8 1365.53 1107.86 1397.03 1105.16C1428.53 1102.47 1468.61 1113.26 1468.61 1113.26L1517.29 1091.65L1545.93 1115.96L1577.43 1137.57L1606.07 1115.96L1634.71 1137.57L1643.29 1126.75L1737.76 1142.96L1783.58 1086.23L1826.51 1107.84L1846.55 1099.74C1858.01 1113.26 1880.91 1126.77 1880.91 1126.77L1920 1080.83V1080.91Z" fill="#FAFAFA"/>
</g>
<path d="M1872.82 1032.48H1920V1029.86H1872.82V980.252H1919.79V977.633H1872.82V928.025H1919.58V925.405H1872.82V875.797H1919.38V873.178H1872.82V823.546H1919.17V820.925H1872.82V771.318H1918.96V768.698H1872.82V719.089H1918.75V716.469H1872.82V666.862H1918.57V664.241H1872.82V614.634H1918.36V612.013H1872.82V562.406H1918.15V559.787H1872.82V510.178H1917.95V507.559H1872.82V457.952H1917.74V455.331H1872.82V405.724H1917.53V403.104H1872.82V353.496H1917.32V350.876H1872.82V301.269H1917.11V298.649H1872.82V249.041H1916.93V246.421H1872.82V196.813H1916.72V194.194H1872.82V144.562H1916.52V141.941H1872.82V92.3337H1916.31V89.7143H1872.82V40.1058H1916.1V37.4864H1872.82V-0.000738795H1870.04V37.4139H1817.37V-0.000738795H1814.59V37.4139H1763.4C1764.6 38.2207 1765.74 39.0776 1766.83 40.0333H1814.59V89.6405H1763.63C1762.18 90.62 1760.64 91.5019 1759.06 92.26H1759.14V141.87H1706.47V92.2612H1728.52C1726.9 91.5032 1725.37 90.6213 1723.94 89.6418H1706.47V40.0346H1720.74C1721.83 39.1039 1722.98 38.222 1724.17 37.4139H1706.47V-0.000738795H1703.69V37.4139H1651.02V-0.000738795H1648.24V37.4139H1632.82C1634.02 38.222 1635.16 39.0789 1636.25 40.0346H1648.24V89.6418H1633.06C1631.6 90.6213 1630.07 91.5032 1628.48 92.2612H1648.24V141.87H1595.57V92.2612H1597.94C1596.12 91.4048 1594.4 90.4011 1592.79 89.2503V89.6418H1540.12V40.0346H1590.16C1591.83 38.5898 1593.62 37.2913 1595.57 36.1892V0.000482795H1592.79V37.4151H1540.12V0.000482795H1537.34V37.4151H1502.25C1503.44 38.2219 1504.59 39.0789 1505.68 40.0346H1537.34V89.6418H1502.48C1501.03 90.6213 1499.49 91.5032 1497.91 92.2612H1537.34V141.87H1484.67V95.5911C1484 95.6411 1483.32 95.69 1482.65 95.69C1482.39 95.69 1482.15 95.6649 1481.92 95.6649V141.87H1429.25V92.2612H1467.39C1465.78 91.5032 1464.24 90.6213 1462.81 89.6418H1429.25V40.0346H1459.61C1460.71 39.1039 1461.85 38.222 1463.04 37.4139H1429.25V-0.000738795H1426.47V37.4139H1373.8V-0.000738795H1371.02V36.9736C1372.48 37.9043 1373.85 38.9075 1375.13 40.0346H1426.47V89.6418H1373.8V88.3196C1371.83 89.862 1369.67 91.1592 1367.35 92.2612H1371.02V141.87H1318.35V92.2612H1336.81C1335.2 91.5032 1333.66 90.6213 1332.23 89.6418H1318.35V67.8497C1318.14 66.4537 1318.01 65.0577 1318.01 63.6142C1318.01 62.1694 1318.14 60.7496 1318.35 59.3536V40.0346H1329.04C1330.13 39.1039 1331.27 38.222 1332.47 37.4139H1318.35V-0.000738795H1315.57V37.4139H1262.9V-0.000738795H1260.12V37.4139H1241.12C1242.31 38.222 1243.46 39.0789 1244.55 40.0346H1260.12V89.6418H1241.35C1239.9 90.6213 1238.36 91.5032 1236.78 92.2612H1260.12V141.87H1207.45V92.8003C1205.4 91.9184 1203.45 90.8664 1201.66 89.6168H1152V40.0095H1198.46C1199.55 39.0789 1200.7 38.1982 1201.89 37.3901H1152V0.000482795H1149.22V37.4151H1110.54C1111.74 38.2219 1112.88 39.0789 1113.97 40.0346H1149.22V89.6418H1110.77C1109.32 90.6213 1107.78 91.5032 1106.2 92.2612H1149.22V141.87H1096.56V95.2233C1095.64 95.3709 1094.71 95.4936 1093.77 95.5674V141.893H1041.11V92.2863H1075.65C1074.04 91.527 1072.51 90.6451 1071.08 89.6669H1041.1V40.0583H1067.88C1068.97 39.1276 1070.12 38.247 1071.31 37.4389H1041.11V-0.000738795H1038.32V37.4139H985.658V-0.000738795H982.876V37.4139H979.965C982.043 38.8099 983.941 40.4015 985.658 42.1886V40.0346H1038.33V89.6418H985.658V85.0385C984.774 85.9441 983.864 86.826 982.876 87.6341V89.6418H980.199C978.743 90.6213 977.209 91.5032 975.623 92.2612H982.876V141.87H930.209V92.2612H945.078C943.467 91.5032 941.933 90.6213 940.503 89.6418H930.209V78.525C929.013 76.3947 928.103 74.118 927.427 71.7188V89.6418H874.76V40.0346H927.427V55.3619C928.078 53.0353 929.039 50.8086 930.209 48.7271V40.0333H937.305C938.397 39.1039 939.542 38.222 940.736 37.4139H930.209V-0.000738795H927.427V37.4139H874.76V-0.000738795H871.978V37.4139H849.388C850.584 38.222 851.727 39.0789 852.819 40.0346H871.978V89.6418H849.621C848.166 90.6213 846.633 91.5032 845.046 92.2612H871.978V141.87H819.312V94.1225C818.376 93.8286 817.44 93.5346 816.53 93.1681V141.87H763.862V92.2612H814.503C812.891 91.5032 811.357 90.6213 809.928 89.6418H763.862V40.0346H806.73C807.822 39.1039 808.965 38.222 810.16 37.4139H763.862V-0.000738795H761.082V37.4139H718.813C720.007 38.222 721.152 39.0789 722.243 40.0346H761.082V89.6418H719.046C717.589 90.6213 716.056 91.5032 714.471 92.2612H761.082V141.87H708.413V94.4653C707.504 94.7105 706.568 94.9306 705.632 95.102V141.87H652.964V92.2612H683.926C682.313 91.5032 680.779 90.6213 679.351 89.6418H652.964V40.0346H676.152C677.245 39.1039 678.388 38.222 679.584 37.4139H652.965V-0.000738795H650.183V37.4139H602.946V-0.000738795H600.164V37.4139H588.232C589.428 38.222 590.572 39.0789 591.663 40.0346H600.164V51.5679C601.776 55.2881 602.686 59.3536 602.686 63.6142C602.686 67.8748 601.776 71.9628 600.164 75.6855V89.6418H588.466C587.01 90.6213 585.476 91.5032 583.891 92.2612H600.164V141.87H547.497V92.2612H553.346C551.734 91.5032 550.2 90.6213 548.77 89.6418H547.497V88.7599C546.535 88.0506 545.599 87.2914 544.715 86.4583V89.6418H492.048V40.0346H544.715V40.7926C546.042 39.5684 547.472 38.4425 549.004 37.4151H547.497V0.000482795H544.715V37.4151H492.048V0.000482795H489.266V37.4151H457.655C458.851 38.2219 459.995 39.0789 461.086 40.0346H489.266V89.6418H457.89C456.433 90.6213 454.9 91.5032 453.313 92.2612H489.266V141.87H436.6V95.6162C435.665 95.5661 434.728 95.5186 433.818 95.4198V141.87H381.151V92.2612H422.77C421.158 91.5032 419.625 90.6213 418.195 89.6418H381.151V40.0346H414.997C416.089 39.1039 417.233 38.222 418.428 37.4139H381.151V-0.000738795H378.37V37.4139H327.08C328.276 38.222 329.419 39.0789 330.51 40.0346H378.37V89.6418H327.314C325.858 90.6213 324.324 91.5032 322.738 92.2612H322.921V141.87H270.252V92.2612H292.193C290.582 91.5032 289.048 90.6213 287.618 89.6418H270.252V40.0346H284.42C285.512 39.1039 286.656 38.222 287.851 37.4139H270.253V-0.000738795H267.473V37.4139H214.804V-0.000738795H212.023V37.4139H196.503C197.7 38.222 198.844 39.0789 199.935 40.0346H212.023V89.6418H196.737C195.282 90.6213 193.749 91.5032 192.162 92.2612H212.023V141.87H159.356V92.2612H161.617C159.85 91.4294 158.159 90.4249 156.574 89.3228V89.6418H103.906V40.0346H153.843C155.534 38.5648 157.379 37.2425 159.355 36.1167V0.000482795H156.573V37.4151H103.906V0.000482795H101.124V37.4151H48.4566V0.000482795H45.6745V37.4151H0V40.0346H45.4404V89.6418H0V92.2612H45.4404V141.87H0V144.489H45.4404V194.121H0V196.741H45.4404V246.349H0V248.969H45.4404V298.576H0V301.197H45.4404V350.804H0V353.425H45.4404V403.032H0V405.651H45.4404V455.26H0V457.879H45.4404V507.486H0V510.107H45.4404V559.714H0V562.334H45.4404V611.942H0V614.562H45.4404V664.169H0V666.79H45.4404V716.397H0V719.017H45.4404V768.625H0V771.244H45.4404V820.853H0V823.472H45.4404V873.104H0V875.724H45.4404V925.332H0V927.952H45.4404V977.559H0V980.179H45.4404V1029.79H0V1032.41H45.4404V1082.01H0V1084.63H45.4404V1129.35C46.3769 1129.05 47.2859 1128.78 48.2224 1128.49V1084.63H100.89V1116C101.826 1115.95 102.735 1115.9 103.672 1115.88V1084.64H156.339V1122.66C157.353 1122 158.288 1121.17 159.121 1120.11V1084.61H211.788V1132.18C212.698 1132.55 213.634 1132.92 214.57 1133.29V1084.61H267.237V1129.15C268.173 1128.68 269.083 1128.22 270.019 1127.75V1084.61H322.686V1109.15C323.595 1109.2 324.506 1109.27 325.467 1109.37V1084.61H378.136V1121.76C379.097 1122.05 380.007 1122.37 380.916 1122.66V1084.61H433.585V1120.73C434.52 1120.73 435.43 1120.75 436.366 1120.8V1084.61H489.034V1126.99L491.815 1127.44V1084.61H544.482V1134.22H534.24L550.592 1136.84H599.931V1144.72L602.713 1145.16V1136.84H649.948V1141.81L652.729 1140.93V1136.81H665.805L674.15 1134.19H652.727V1084.59H705.396V1124.4L708.177 1123.52V1084.59H760.845V1122.46L763.626 1122.98V1084.56H816.294V1111.42L819.075 1112.72V1084.56H871.742V1118.32C872.652 1118.18 873.589 1118.03 874.524 1117.88V1084.58H927.191V1123.71C928.128 1124.06 929.038 1124.42 929.973 1124.79V1084.58H982.641V1134.19H951.42C953.369 1135.12 955.188 1136.01 956.801 1136.81H982.668V1137.33L998.186 1134.19H985.449V1084.59H1038.12V1134.19H1008.09L1014.2 1136.81H1038.11V1145.77C1038.84 1145.53 1039.75 1145.24 1040.9 1144.87V1136.81H1066.92C1069.91 1135.93 1072.98 1135.05 1076.04 1134.19H1040.9V1084.58H1093.57V1129.69C1094.5 1129.47 1095.44 1129.27 1096.35 1129.08V1084.61H1149.01V1132.72C1149.92 1132.9 1150.86 1133.07 1151.8 1133.24V1084.61H1204.47V1134.22H1156.97C1161.29 1135.05 1165.68 1135.93 1170.07 1136.84H1204.47V1144.23C1205.4 1144.45 1206.34 1144.65 1207.25 1144.87V1136.84H1259.91V1143.69C1260.82 1143.38 1261.76 1143.06 1262.7 1142.74V1136.84H1280.06C1282.61 1135.98 1285.21 1135.1 1287.86 1134.22H1262.7V1084.61H1315.36V1125.21C1316.3 1124.91 1317.21 1124.62 1318.14 1124.33V1084.61H1370.81V1108.66C1371.75 1108.41 1372.68 1108.17 1373.59 1107.95V1084.61H1426.26V1103.73C1427.2 1103.83 1428.11 1103.93 1429.04 1104.03V1084.61H1481.71V1105.57L1484.49 1104.34V1084.61H1537.16V1106.38L1539.94 1108.73V1084.61H1592.61V1124.28L1595.39 1122.2V1084.63H1648.06V1125.57L1650.84 1126.04V1084.61H1703.51V1134.22H1698.67L1713.96 1136.84H1741.3L1743.41 1134.22H1706.26V1084.61H1758.93V1115.02L1761.71 1111.59V1084.61H1783.55L1783.78 1084.32L1784.38 1084.61H1814.4V1099.69L1817.19 1101.09V1084.61H1869.85V1117.45C1870.82 1118.11 1871.75 1118.74 1872.64 1119.33V1084.59H1915.4L1917.63 1081.97H1872.64V1032.36L1872.82 1032.48ZM100.89 1082.09H48.2224V1032.48H100.89V1082.09ZM100.89 1029.86H48.2224V980.252H100.89V1029.86ZM100.89 977.633H48.2224V928.025H100.89V977.633ZM100.89 925.381H48.2224V875.772H100.89V925.381ZM100.89 873.153H48.2224V823.521H100.89V873.153ZM100.89 820.925H48.2224V771.318H100.89V820.925ZM100.89 768.698H48.2224V719.089H100.89V768.698ZM100.89 716.446H48.2224V666.838H100.89V716.446ZM100.89 664.219H48.2224V614.61H100.89V664.219ZM100.89 611.991H48.2224V562.384H100.89V611.991ZM100.89 559.763H48.2224V510.156H100.89V559.763ZM100.89 507.511H48.2224V457.904H100.89V507.511ZM100.89 455.283H48.2224V405.676H100.89V455.283ZM100.89 403.056H48.2224V353.448H100.89V403.056ZM100.89 350.829H48.2224V301.22H100.89V350.829ZM100.89 298.576H48.2224V248.969H100.89V298.576ZM100.89 246.349H48.2224V196.741H100.89V246.349ZM100.89 194.121H48.2224V144.489H100.89V194.121ZM100.89 141.893H48.2224V92.2863H100.89V141.893ZM100.89 89.6418H48.2224V40.0346H100.89V89.6418ZM156.339 1082.09H103.672V1032.48H156.339V1082.09ZM156.339 1029.86H103.672V980.252H156.339V1029.86ZM156.339 977.633H103.672V928.025H156.339V977.633ZM156.339 925.381H103.672V875.772H156.339V925.381ZM156.339 873.153H103.672V823.521H156.339V873.153ZM156.339 820.925H103.672V771.318H156.339V820.925ZM156.339 768.698H103.672V719.089H156.339V768.698ZM156.339 716.446H103.672V666.838H156.339V716.446ZM156.339 664.219H103.672V614.61H156.339V664.219ZM156.339 611.991H103.672V562.384H156.339V611.991ZM156.339 559.763H103.672V510.156H156.339V559.763ZM156.339 507.511H103.672V457.904H156.339V507.511ZM156.339 455.283H103.672V405.676H156.339V455.283ZM156.339 403.056H103.672V353.448H156.339V403.056ZM156.339 350.829H103.672V301.22H156.339V350.829ZM156.339 298.576H103.672V248.969H156.339V298.576ZM156.339 246.349H103.672V196.741H156.339V246.349ZM156.339 194.121H103.672V144.489H156.339V194.121ZM156.339 141.893H103.672V92.2863H156.339V141.893ZM211.814 1082.09H159.146V1032.48H211.814V1082.09ZM211.814 1029.86H159.146V980.252H211.814V1029.86ZM211.814 977.633H159.146V928.025H211.814V977.633ZM211.814 925.381H159.146V875.772H211.814V925.381ZM211.814 873.153H159.146V823.521H211.814V873.153ZM211.814 820.925H159.146V771.318H211.814V820.925ZM211.814 768.698H159.146V719.089H211.814V768.698ZM211.814 716.446H159.146V666.838H211.814V716.446ZM211.814 664.219H159.146V614.61H211.814V664.219ZM211.814 611.991H159.146V562.384H211.814V611.991ZM211.814 559.763H159.146V510.156H211.814V559.763ZM211.814 507.511H159.146V457.904H211.814V507.511ZM211.814 455.283H159.146V405.676H211.814V455.283ZM211.814 403.056H159.146V353.448H211.814V403.056ZM211.814 350.829H159.146V301.22H211.814V350.829ZM211.814 298.576H159.146V248.969H211.814V298.576ZM211.814 246.349H159.146V196.741H211.814V246.349ZM211.814 194.121H159.146V144.489H211.814V194.121ZM267.264 1082.09H214.595V1032.48H267.264V1082.09ZM267.264 1029.86H214.595V980.252H267.264V1029.86ZM267.264 977.633H214.595V928.025H267.264V977.633ZM267.264 925.381H214.595V875.772H267.264V925.381ZM267.264 873.153H214.595V823.521H267.264V873.153ZM267.264 820.925H214.595V771.318H267.264V820.925ZM267.264 768.698H214.595V719.089H267.264V768.698ZM267.264 716.446H214.595V666.838H267.264V716.446ZM267.264 664.219H214.595V614.61H267.264V664.219ZM267.264 611.991H214.595V562.384H267.264V611.991ZM267.264 559.763H214.595V510.156H267.264V559.763ZM267.264 507.511H214.595V457.904H267.264V507.511ZM267.264 455.283H214.595V405.676H267.264V455.283ZM267.264 403.056H214.595V353.448H267.264V403.056ZM267.264 350.829H214.595V301.22H267.264V350.829ZM267.264 298.576H214.595V248.969H267.264V298.576ZM267.264 246.349H214.595V196.741H267.264V246.349ZM267.264 194.121H214.595V144.489H267.264V194.121ZM267.264 141.893H214.595V92.2863H267.264V141.893ZM267.264 89.6418H214.595V40.0346H267.264V89.6418ZM322.713 1082.09H270.044V1032.48H322.713V1082.09ZM322.713 1029.86H270.044V980.252H322.713V1029.86ZM322.713 977.633H270.044V928.025H322.713V977.633ZM322.713 925.381H270.044V875.772H322.713V925.381ZM322.713 873.153H270.044V823.521H322.713V873.153ZM322.713 820.925H270.044V771.318H322.713V820.925ZM322.713 768.698H270.044V719.089H322.713V768.698ZM322.713 716.446H270.044V666.838H322.713V716.446ZM322.713 664.219H270.044V614.61H322.713V664.219ZM322.713 611.991H270.044V562.384H322.713V611.991ZM322.713 559.763H270.044V510.156H322.713V559.763ZM322.713 507.511H270.044V457.904H322.713V507.511ZM322.713 455.283H270.044V405.676H322.713V455.283ZM322.713 403.056H270.044V353.448H322.713V403.056ZM322.713 350.829H270.044V301.22H322.713V350.829ZM322.713 298.576H270.044V248.969H322.713V298.576ZM322.713 246.349H270.044V196.741H322.713V246.349ZM322.713 194.121H270.044V144.489H322.713V194.121ZM378.161 1082.09H325.494V1032.48H378.161V1082.09ZM378.161 1029.86H325.494V980.252H378.161V1029.86ZM378.161 977.633H325.494V928.025H378.161V977.633ZM378.161 925.381H325.494V875.772H378.161V925.381ZM378.161 873.153H325.494V823.521H378.161V873.153ZM378.161 820.925H325.494V771.318H378.161V820.925ZM378.161 768.698H325.494V719.089H378.161V768.698ZM378.161 716.446H325.494V666.838H378.161V716.446ZM378.161 664.219H325.494V614.61H378.161V664.219ZM378.161 611.991H325.494V562.384H378.161V611.991ZM378.161 559.763H325.494V510.156H378.161V559.763ZM378.161 507.511H325.494V457.904H378.161V507.511ZM378.161 455.283H325.494V405.676H378.161V455.283ZM378.161 403.056H325.494V353.448H378.161V403.056ZM378.161 350.829H325.494V301.22H378.161V350.829ZM378.161 298.576H325.494V248.969H378.161V298.576ZM378.161 246.349H325.494V196.741H378.161V246.349ZM378.161 194.121H325.494V144.489H378.161V194.121ZM378.161 141.893H325.494V92.2863H378.161V141.893ZM433.636 1082.09H380.969V1032.48H433.636V1082.09ZM433.636 1029.86H380.969V980.252H433.636V1029.86ZM433.636 977.633H380.969V928.025H433.636V977.633ZM433.636 925.381H380.969V875.772H433.636V925.381ZM433.636 873.153H380.969V823.521H433.636V873.153ZM433.636 820.925H380.969V771.318H433.636V820.925ZM433.636 768.698H380.969V719.089H433.636V768.698ZM433.636 716.446H380.969V666.838H433.636V716.446ZM433.636 664.219H380.969V614.61H433.636V664.219ZM433.636 611.991H380.969V562.384H433.636V611.991ZM433.636 559.763H380.969V510.156H433.636V559.763ZM433.636 507.511H380.969V457.904H433.636V507.511ZM433.636 455.283H380.969V405.676H433.636V455.283ZM433.636 403.056H380.969V353.448H433.636V403.056ZM433.636 350.829H380.969V301.22H433.636V350.829ZM433.636 298.576H380.969V248.969H433.636V298.576ZM433.636 246.349H380.969V196.741H433.636V246.349ZM433.636 194.121H380.969V144.489H433.636V194.121ZM489.085 1082.09H436.418V1032.48H489.085V1082.09ZM489.085 1029.86H436.418V980.252H489.085V1029.86ZM489.085 977.633H436.418V928.025H489.085V977.633ZM489.085 925.381H436.418V875.772H489.085V925.381ZM489.085 873.153H436.418V823.521H489.085V873.153ZM489.085 820.925H436.418V771.318H489.085V820.925ZM489.085 768.698H436.418V719.089H489.085V768.698ZM489.085 716.446H436.418V666.838H489.085V716.446ZM489.085 664.219H436.418V614.61H489.085V664.219ZM489.085 611.991H436.418V562.384H489.085V611.991ZM489.085 559.763H436.418V510.156H489.085V559.763ZM489.085 507.511H436.418V457.904H489.085V507.511ZM489.085 455.283H436.418V405.676H489.085V455.283ZM489.085 403.056H436.418V353.448H489.085V403.056ZM489.085 350.829H436.418V301.22H489.085V350.829ZM489.085 298.576H436.418V248.969H489.085V298.576ZM489.085 246.349H436.418V196.741H489.085V246.349ZM489.085 194.121H436.418V144.489H489.085V194.121ZM544.535 1082.09H491.867V1032.48H544.535V1082.09ZM544.535 1029.86H491.867V980.252H544.535V1029.86ZM544.535 977.633H491.867V928.025H544.535V977.633ZM544.535 925.381H491.867V875.772H544.535V925.381ZM544.535 873.153H491.867V823.521H544.535V873.153ZM544.535 820.925H491.867V771.318H544.535V820.925ZM544.535 768.698H491.867V719.089H544.535V768.698ZM544.535 716.446H491.867V666.838H544.535V716.446ZM544.535 664.219H491.867V614.61H544.535V664.219ZM544.535 611.991H491.867V562.384H544.535V611.991ZM544.535 559.763H491.867V510.156H544.535V559.763ZM544.535 507.511H491.867V457.904H544.535V507.511ZM544.535 455.283H491.867V405.676H544.535V455.283ZM544.535 403.056H491.867V353.448H544.535V403.056ZM544.535 350.829H491.867V301.22H544.535V350.829ZM544.535 298.576H491.867V248.969H544.535V298.576ZM544.535 246.349H491.867V196.741H544.535V246.349ZM544.535 194.121H491.867V144.489H544.535V194.121ZM544.535 141.893H491.867V92.2863H544.535V141.893ZM599.984 1134.32H547.317V1084.71H599.984V1134.32ZM599.984 1082.09H547.317V1032.48H599.984V1082.09ZM599.984 1029.86H547.317V980.252H599.984V1029.86ZM599.984 977.633H547.317V928.025H599.984V977.633ZM599.984 925.381H547.317V875.772H599.984V925.381ZM599.984 873.153H547.317V823.521H599.984V873.153ZM599.984 820.925H547.317V771.318H599.984V820.925ZM599.984 768.698H547.317V719.089H599.984V768.698ZM599.984 716.446H547.317V666.838H599.984V716.446ZM599.984 664.219H547.317V614.61H599.984V664.219ZM599.984 611.991H547.317V562.384H599.984V611.991ZM599.984 559.763H547.317V510.156H599.984V559.763ZM599.984 507.511H547.317V457.904H599.984V507.511ZM599.984 455.283H547.317V405.676H599.984V455.283ZM599.984 403.056H547.317V353.448H599.984V403.056ZM599.984 350.829H547.317V301.22H599.984V350.829ZM599.984 298.576H547.317V248.969H599.984V298.576ZM599.984 246.349H547.317V196.741H599.984V246.349ZM599.984 194.121H547.317V144.489H599.984V194.121ZM650.025 1134.32H602.791V1084.71H650.025V1134.32ZM650.025 1082.09H602.791V1032.48H650.025V1082.09ZM650.025 1029.86H602.791V980.252H650.025V1029.86ZM650.025 977.633H602.791V928.025H650.025V977.633ZM650.025 925.381H602.791V875.772H650.025V925.381ZM650.025 873.153H602.791V823.521H650.025V873.153ZM650.025 820.925H602.791V771.318H650.025V820.925ZM650.025 768.698H602.791V719.089H650.025V768.698ZM650.025 716.446H602.791V666.838H650.025V716.446ZM650.025 664.219H602.791V614.61H650.025V664.219ZM650.025 611.991H602.791V562.384H650.025V611.991ZM650.025 559.763H602.791V510.156H650.025V559.763ZM650.025 507.511H602.791V457.904H650.025V507.511ZM650.025 455.283H602.791V405.676H650.025V455.283ZM650.025 403.056H602.791V353.448H650.025V403.056ZM650.025 350.829H602.791V301.22H650.025V350.829ZM650.025 298.576H602.791V248.969H650.025V298.576ZM650.025 246.349H602.791V196.741H650.025V246.349ZM650.025 194.121H602.791V144.489H650.025V194.121ZM650.025 141.893H602.791V92.2863H650.025V141.893ZM650.025 89.6418H602.791V40.0346H650.025V89.6418ZM705.475 1082.09H652.808V1032.48H705.475V1082.09ZM705.475 1029.86H652.808V980.252H705.475V1029.86ZM705.475 977.633H652.808V928.025H705.475V977.633ZM705.475 925.381H652.808V875.772H705.475V925.381ZM705.475 873.153H652.808V823.521H705.475V873.153ZM705.475 820.925H652.808V771.318H705.475V820.925ZM705.475 768.698H652.808V719.089H705.475V768.698ZM705.475 716.446H652.808V666.838H705.475V716.446ZM705.475 664.219H652.808V614.61H705.475V664.219ZM705.475 611.991H652.808V562.384H705.475V611.991ZM705.475 559.763H652.808V510.156H705.475V559.763ZM705.475 507.511H652.808V457.904H705.475V507.511ZM705.475 455.283H652.808V405.676H705.475V455.283ZM705.475 403.056H652.808V353.448H705.475V403.056ZM705.475 350.829H652.808V301.22H705.475V350.829ZM705.475 298.576H652.808V248.969H705.475V298.576ZM705.475 246.349H652.808V196.741H705.475V246.349ZM705.475 194.121H652.808V144.489H705.475V194.121ZM760.924 1082.09H708.257V1032.48H760.924V1082.09ZM760.924 1029.86H708.257V980.252H760.924V1029.86ZM760.924 977.633H708.257V928.025H760.924V977.633ZM760.924 925.381H708.257V875.772H760.924V925.381ZM760.924 873.153H708.257V823.521H760.924V873.153ZM760.924 820.925H708.257V771.318H760.924V820.925ZM760.924 768.698H708.257V719.089H760.924V768.698ZM760.924 716.446H708.257V666.838H760.924V716.446ZM760.924 664.219H708.257V614.61H760.924V664.219ZM760.924 611.991H708.257V562.384H760.924V611.991ZM760.924 559.763H708.257V510.156H760.924V559.763ZM760.924 507.511H708.257V457.904H760.924V507.511ZM760.924 455.283H708.257V405.676H760.924V455.283ZM760.924 403.056H708.257V353.448H760.924V403.056ZM760.924 350.829H708.257V301.22H760.924V350.829ZM760.924 298.576H708.257V248.969H760.924V298.576ZM760.924 246.349H708.257V196.741H760.924V246.349ZM760.924 194.121H708.257V144.489H760.924V194.121ZM816.373 1082.09H763.706V1032.48H816.373V1082.09ZM816.373 1029.86H763.706V980.252H816.373V1029.86ZM816.373 977.633H763.706V928.025H816.373V977.633ZM816.373 925.381H763.706V875.772H816.373V925.381ZM816.373 873.153H763.706V823.521H816.373V873.153ZM816.373 820.925H763.706V771.318H816.373V820.925ZM816.373 768.698H763.706V719.089H816.373V768.698ZM816.373 716.446H763.706V666.838H816.373V716.446ZM816.373 664.219H763.706V614.61H816.373V664.219ZM816.373 611.991H763.706V562.384H816.373V611.991ZM816.373 559.763H763.706V510.156H816.373V559.763ZM816.373 507.511H763.706V457.904H816.373V507.511ZM816.373 455.283H763.706V405.676H816.373V455.283ZM816.373 403.056H763.706V353.448H816.373V403.056ZM816.373 350.829H763.706V301.22H816.373V350.829ZM816.373 298.576H763.706V248.969H816.373V298.576ZM816.373 246.349H763.706V196.741H816.373V246.349ZM816.373 194.121H763.706V144.489H816.373V194.121ZM871.847 1082.09H819.179V1032.48H871.847V1082.09ZM871.847 1029.86H819.179V980.252H871.847V1029.86ZM871.847 977.633H819.179V928.025H871.847V977.633ZM871.847 925.381H819.179V875.772H871.847V925.381ZM871.847 873.153H819.179V823.521H871.847V873.153ZM871.847 820.925H819.179V771.318H871.847V820.925ZM871.847 768.698H819.179V719.089H871.847V768.698ZM871.847 716.446H819.179V666.838H871.847V716.446ZM871.847 664.219H819.179V614.61H871.847V664.219ZM871.847 611.991H819.179V562.384H871.847V611.991ZM871.847 559.763H819.179V510.156H871.847V559.763ZM871.847 507.511H819.179V457.904H871.847V507.511ZM871.847 455.283H819.179V405.676H871.847V455.283ZM871.847 403.056H819.179V353.448H871.847V403.056ZM871.847 350.829H819.179V301.22H871.847V350.829ZM871.847 298.576H819.179V248.969H871.847V298.576ZM871.847 246.349H819.179V196.741H871.847V246.349ZM871.847 194.121H819.179V144.489H871.847V194.121ZM927.295 1082.09H874.628V1032.48H927.295V1082.09ZM927.295 1029.86H874.628V980.252H927.295V1029.86ZM927.295 977.633H874.628V928.025H927.295V977.633ZM927.295 925.381H874.628V875.772H927.295V925.381ZM927.295 873.153H874.628V823.521H927.295V873.153ZM927.295 820.925H874.628V771.318H927.295V820.925ZM927.295 768.698H874.628V719.089H927.295V768.698ZM927.295 716.446H874.628V666.838H927.295V716.446ZM927.295 664.219H874.628V614.61H927.295V664.219ZM927.295 611.991H874.628V562.384H927.295V611.991ZM927.295 559.763H874.628V510.156H927.295V559.763ZM927.295 507.511H874.628V457.904H927.295V507.511ZM927.295 455.283H874.628V405.676H927.295V455.283ZM927.295 403.056H874.628V353.448H927.295V403.056ZM927.295 350.829H874.628V301.22H927.295V350.829ZM927.295 298.576H874.628V248.969H927.295V298.576ZM927.295 246.349H874.628V196.741H927.295V246.349ZM927.295 194.121H874.628V144.489H927.295V194.121ZM927.295 141.893H874.628V92.2863H927.295V141.893ZM982.745 1082.09H930.08V1032.48H982.747L982.745 1082.09ZM982.745 1029.86H930.08V980.252H982.747L982.745 1029.86ZM982.745 977.633H930.08V928.025H982.747L982.745 977.633ZM982.745 925.381H930.08V875.772H982.747L982.745 925.381ZM982.745 873.153H930.08V823.521H982.747L982.745 873.153ZM982.745 820.925H930.08V771.318H982.747L982.745 820.925ZM982.745 768.698H930.08V719.089H982.747L982.745 768.698ZM982.745 716.446H930.08V666.838H982.747L982.745 716.446ZM982.745 664.219H930.08V614.61H982.747L982.745 664.219ZM982.745 611.991H930.08V562.384H982.747L982.745 611.991ZM982.745 559.763H930.08V510.156H982.747L982.745 559.763ZM982.745 507.511H930.08V457.904H982.747L982.745 507.511ZM982.745 455.283H930.08V405.676H982.747L982.745 455.283ZM982.745 403.056H930.08V353.448H982.747L982.745 403.056ZM982.745 350.829H930.08V301.22H982.747L982.745 350.829ZM982.745 298.576H930.08V248.969H982.747L982.745 298.576ZM982.745 246.349H930.08V196.741H982.747L982.745 246.349ZM982.745 194.121H930.08V144.489H982.747L982.745 194.121ZM1038.19 1082.09H985.527V1032.48H1038.19V1082.09ZM1038.19 1029.86H985.527V980.252H1038.19V1029.86ZM1038.19 977.633H985.527V928.025H1038.19V977.633ZM1038.19 925.381H985.527V875.772H1038.19V925.381ZM1038.19 873.153H985.527V823.521H1038.19V873.153ZM1038.19 820.925H985.527V771.318H1038.19V820.925ZM1038.19 768.698H985.527V719.089H1038.19V768.698ZM1038.19 716.446H985.527V666.838H1038.19V716.446ZM1038.19 664.219H985.527V614.61H1038.19V664.219ZM1038.19 611.991H985.527V562.384H1038.19V611.991ZM1038.19 559.763H985.527V510.156H1038.19V559.763ZM1038.19 507.511H985.527V457.904H1038.19V507.511ZM1038.19 455.283H985.527V405.676H1038.19V455.283ZM1038.19 403.056H985.527V353.448H1038.19V403.056ZM1038.19 350.829H985.527V301.22H1038.19V350.829ZM1038.19 298.576H985.527V248.969H1038.19V298.576ZM1038.19 246.349H985.527V196.741H1038.19V246.349ZM1038.19 194.121H985.527V144.489H1038.19V194.121ZM1038.19 141.893H985.527V92.2863H1038.19V141.893ZM1093.67 1082.09H1041V1032.48H1093.67V1082.09ZM1093.67 1029.86H1041V980.253H1093.67V1029.86ZM1093.67 977.634H1041V928.027H1093.67V977.634ZM1093.67 925.382H1041V875.774H1093.67V925.382ZM1093.67 873.154H1041V823.522H1093.67V873.154ZM1093.67 820.926H1041V771.319H1093.67V820.926ZM1093.67 768.7H1041V719.089H1093.67V768.7ZM1093.67 716.447H1041V666.84H1093.67V716.447ZM1093.67 664.22H1041V614.612H1093.67V664.22ZM1093.67 611.992H1041V562.385H1093.67V611.992ZM1093.67 559.764H1041V510.157H1093.67V559.764ZM1093.67 507.513H1041V457.905H1093.67V507.513ZM1093.67 455.285H1041V405.677H1093.67V455.285ZM1093.67 403.057H1041V353.448H1093.67V403.057ZM1093.67 350.83H1041V301.222H1093.67V350.83ZM1093.67 298.577H1041V248.97H1093.67V298.577ZM1093.67 246.351H1041V196.742H1093.67V246.351ZM1093.67 194.123H1041V144.49H1093.67V194.123ZM1149.12 1082.09H1096.45V1032.48H1149.12L1149.12 1082.09ZM1149.12 1029.86H1096.45V980.253H1149.12L1149.12 1029.86ZM1149.12 977.634H1096.45V928.027H1149.12L1149.12 977.634ZM1149.12 925.382H1096.45V875.774H1149.12L1149.12 925.382ZM1149.12 873.154H1096.45V823.522H1149.12L1149.12 873.154ZM1149.12 820.926H1096.45V771.319H1149.12L1149.12 820.926ZM1149.12 768.7H1096.45V719.089H1149.12L1149.12 768.7ZM1149.12 716.447H1096.45V666.84H1149.12L1149.12 716.447ZM1149.12 664.22H1096.45V614.612H1149.12L1149.12 664.22ZM1149.12 611.992H1096.45V562.385H1149.12L1149.12 611.992ZM1149.12 559.764H1096.45V510.157H1149.12L1149.12 559.764ZM1149.12 507.513H1096.45V457.905H1149.12L1149.12 507.513ZM1149.12 455.285H1096.45V405.677H1149.12L1149.12 455.285ZM1149.12 403.057H1096.45V353.448H1149.12L1149.12 403.057ZM1149.12 350.83H1096.45V301.222H1149.12L1149.12 350.83ZM1149.12 298.577H1096.45V248.97H1149.12L1149.12 298.577ZM1149.12 246.351H1096.45V196.742H1149.12L1149.12 246.351ZM1149.12 194.123H1096.45V144.49H1149.12L1149.12 194.123ZM1204.57 1082.09H1151.9V1032.48H1204.57V1082.09ZM1204.57 1029.86H1151.9V980.253H1204.57V1029.86ZM1204.57 977.634H1151.9V928.027H1204.57V977.634ZM1204.57 925.382H1151.9V875.774H1204.57V925.382ZM1204.57 873.154H1151.9V823.522H1204.57V873.154ZM1204.57 820.926H1151.9V771.319H1204.57V820.926ZM1204.57 768.7H1151.9V719.089H1204.57V768.7ZM1204.57 716.447H1151.9V666.84H1204.57V716.447ZM1204.57 664.22H1151.9V614.612H1204.57V664.22ZM1204.57 611.992H1151.9V562.385H1204.57V611.992ZM1204.57 559.764H1151.9V510.157H1204.57V559.764ZM1204.57 507.513H1151.9V457.905H1204.57V507.513ZM1204.57 455.285H1151.9V405.677H1204.57V455.285ZM1204.57 403.057H1151.9V353.448H1204.57V403.057ZM1204.57 350.83H1151.9V301.222H1204.57V350.83ZM1204.57 298.577H1151.9V248.97H1204.57V298.577ZM1204.57 246.351H1151.9V196.742H1204.57V246.351ZM1204.57 194.123H1151.9V144.49H1204.57V194.123ZM1204.57 141.895H1151.9V92.2875H1204.57V141.895ZM1260.02 1134.32H1207.35V1084.71H1260.02V1134.32ZM1260.02 1082.09H1207.35V1032.48H1260.02V1082.09ZM1260.02 1029.86H1207.35V980.252H1260.02V1029.86ZM1260.02 977.633H1207.35V928.025H1260.02V977.633ZM1260.02 925.381H1207.35V875.772H1260.02V925.381ZM1260.02 873.153H1207.35V823.521H1260.02V873.153ZM1260.02 820.925H1207.35V771.318H1260.02V820.925ZM1260.02 768.698H1207.35V719.089H1260.02V768.698ZM1260.02 716.446H1207.35V666.838H1260.02V716.446ZM1260.02 664.219H1207.35V614.61H1260.02V664.219ZM1260.02 611.991H1207.35V562.384H1260.02V611.991ZM1260.02 559.763H1207.35V510.156H1260.02V559.763ZM1260.02 507.511H1207.35V457.904H1260.02V507.511ZM1260.02 455.283H1207.35V405.676H1260.02V455.283ZM1260.02 403.056H1207.35V353.448H1260.02V403.056ZM1260.02 350.829H1207.35V301.22H1260.02V350.829ZM1260.02 298.576H1207.35V248.969H1260.02V298.576ZM1260.02 246.349H1207.35V196.741H1260.02V246.349ZM1260.02 194.121H1207.35V144.489H1260.02V194.121ZM1315.49 1082.09H1262.83V1032.48H1315.49V1082.09ZM1315.49 1029.86H1262.83V980.252H1315.49V1029.86ZM1315.49 977.633H1262.83V928.025H1315.49V977.633ZM1315.49 925.381H1262.83V875.772H1315.49V925.381ZM1315.49 873.153H1262.83V823.521H1315.49V873.153ZM1315.49 820.925H1262.83V771.318H1315.49V820.925ZM1315.49 768.698H1262.83V719.089H1315.49V768.698ZM1315.49 716.446H1262.83V666.838H1315.49V716.446ZM1315.49 664.219H1262.83V614.61H1315.49V664.219ZM1315.49 611.991H1262.83V562.384H1315.49V611.991ZM1315.49 559.763H1262.83V510.156H1315.49V559.763ZM1315.49 507.511H1262.83V457.904H1315.49V507.511ZM1315.49 455.283H1262.83V405.676H1315.49V455.283ZM1315.49 403.056H1262.83V353.448H1315.49V403.056ZM1315.49 350.829H1262.83V301.22H1315.49V350.829ZM1315.49 298.576H1262.83V248.969H1315.49V298.576ZM1315.49 246.349H1262.83V196.741H1315.49V246.349ZM1315.49 194.121H1262.83V144.489H1315.49V194.121ZM1315.49 141.893H1262.83V92.2863H1315.49V141.893ZM1315.49 89.6418H1262.83V40.0346H1315.49V89.6418ZM1370.94 1082.09H1318.28V1032.48H1370.94L1370.94 1082.09ZM1370.94 1029.86H1318.28V980.252H1370.94L1370.94 1029.86ZM1370.94 977.633H1318.28V928.025H1370.94L1370.94 977.633ZM1370.94 925.381H1318.28V875.772H1370.94L1370.94 925.381ZM1370.94 873.153H1318.28V823.521H1370.94L1370.94 873.153ZM1370.94 820.925H1318.28V771.318H1370.94L1370.94 820.925ZM1370.94 768.698H1318.28V719.089H1370.94L1370.94 768.698ZM1370.94 716.446H1318.28V666.838H1370.94L1370.94 716.446ZM1370.94 664.219H1318.28V614.61H1370.94L1370.94 664.219ZM1370.94 611.991H1318.28V562.384H1370.94L1370.94 611.991ZM1370.94 559.763H1318.28V510.156H1370.94L1370.94 559.763ZM1370.94 507.511H1318.28V457.904H1370.94L1370.94 507.511ZM1370.94 455.283H1318.28V405.676H1370.94L1370.94 455.283ZM1370.94 403.056H1318.28V353.448H1370.94L1370.94 403.056ZM1370.94 350.829H1318.28V301.22H1370.94L1370.94 350.829ZM1370.94 298.576H1318.28V248.969H1370.94L1370.94 298.576ZM1370.94 246.349H1318.28V196.741H1370.94L1370.94 246.349ZM1370.94 194.121H1318.28V144.489H1370.94L1370.94 194.121ZM1426.39 1082.09H1373.72V1032.48H1426.39V1082.09ZM1426.39 1029.86H1373.72V980.252H1426.39V1029.86ZM1426.39 977.633H1373.72V928.025H1426.39V977.633ZM1426.39 925.381H1373.72V875.772H1426.39V925.381ZM1426.39 873.153H1373.72V823.521H1426.39V873.153ZM1426.39 820.925H1373.72V771.318H1426.39V820.925ZM1426.39 768.698H1373.72V719.089H1426.39V768.698ZM1426.39 716.446H1373.72V666.838H1426.39V716.446ZM1426.39 664.219H1373.72V614.61H1426.39V664.219ZM1426.39 611.991H1373.72V562.384H1426.39V611.991ZM1426.39 559.763H1373.72V510.156H1426.39V559.763ZM1426.39 507.511H1373.72V457.904H1426.39V507.511ZM1426.39 455.283H1373.72V405.676H1426.39V455.283ZM1426.39 403.056H1373.72V353.448H1426.39V403.056ZM1426.39 350.829H1373.72V301.22H1426.39V350.829ZM1426.39 298.576H1373.72V248.969H1426.39V298.576ZM1426.39 246.349H1373.72V196.741H1426.39V246.349ZM1426.39 194.121H1373.72V144.489H1426.39V194.121ZM1426.39 141.893H1373.72V92.2863H1426.39V141.893ZM1481.84 1082.09H1429.17V1032.48H1481.84V1082.09ZM1481.84 1029.86H1429.17V980.252H1481.84V1029.86ZM1481.84 977.633H1429.17V928.025H1481.84V977.633ZM1481.84 925.381H1429.17V875.772H1481.84V925.381ZM1481.84 873.153H1429.17V823.521H1481.84V873.153ZM1481.84 820.925H1429.17V771.318H1481.84V820.925ZM1481.84 768.698H1429.17V719.089H1481.84V768.698ZM1481.84 716.446H1429.17V666.838H1481.84V716.446ZM1481.84 664.219H1429.17V614.61H1481.84V664.219ZM1481.84 611.991H1429.17V562.384H1481.84V611.991ZM1481.84 559.763H1429.17V510.156H1481.84V559.763ZM1481.84 507.511H1429.17V457.904H1481.84V507.511ZM1481.84 455.283H1429.17V405.676H1481.84V455.283ZM1481.84 403.056H1429.17V353.448H1481.84V403.056ZM1481.84 350.829H1429.17V301.22H1481.84V350.829ZM1481.84 298.576H1429.17V248.969H1481.84V298.576ZM1481.84 246.349H1429.17V196.741H1481.84V246.349ZM1481.84 194.121H1429.17V144.489H1481.84V194.121ZM1537.32 1082.09H1484.65V1032.48H1537.32V1082.09ZM1537.32 1029.86H1484.65V980.252H1537.32V1029.86ZM1537.32 977.633H1484.65V928.025H1537.32V977.633ZM1537.32 925.381H1484.65V875.772H1537.32V925.381ZM1537.32 873.153H1484.65V823.521H1537.32V873.153ZM1537.32 820.925H1484.65V771.318H1537.32V820.925ZM1537.32 768.698H1484.65V719.089H1537.32V768.698ZM1537.32 716.446H1484.65V666.838H1537.32V716.446ZM1537.32 664.219H1484.65V614.61H1537.32V664.219ZM1537.32 611.991H1484.65V562.384H1537.32V611.991ZM1537.32 559.763H1484.65V510.156H1537.32V559.763ZM1537.32 507.511H1484.65V457.904H1537.32V507.511ZM1537.32 455.283H1484.65V405.676H1537.32V455.283ZM1537.32 403.056H1484.65V353.448H1537.32V403.056ZM1537.32 350.829H1484.65V301.22H1537.32V350.829ZM1537.32 298.576H1484.65V248.969H1537.32V298.576ZM1537.32 246.349H1484.65V196.741H1537.32V246.349ZM1537.32 194.121H1484.65V144.489H1537.32V194.121ZM1592.76 1082.09H1540.1V1032.48H1592.76V1082.09ZM1592.76 1029.86H1540.1V980.252H1592.76V1029.86ZM1592.76 977.633H1540.1V928.025H1592.76V977.633ZM1592.76 925.381H1540.1V875.772H1592.76V925.381ZM1592.76 873.153H1540.1V823.521H1592.76V873.153ZM1592.76 820.925H1540.1V771.318H1592.76V820.925ZM1592.76 768.698H1540.1V719.089H1592.76V768.698ZM1592.76 716.446H1540.1V666.838H1592.76V716.446ZM1592.76 664.219H1540.1V614.61H1592.76V664.219ZM1592.76 611.991H1540.1V562.384H1592.76V611.991ZM1592.76 559.763H1540.1V510.156H1592.76V559.763ZM1592.76 507.511H1540.1V457.904H1592.76V507.511ZM1592.76 455.283H1540.1V405.676H1592.76V455.283ZM1592.76 403.056H1540.1V353.448H1592.76V403.056ZM1592.76 350.829H1540.1V301.22H1592.76V350.829ZM1592.76 298.576H1540.1V248.969H1592.76V298.576ZM1592.76 246.349H1540.1V196.741H1592.76V246.349ZM1592.76 194.121H1540.1V144.489H1592.76V194.121ZM1592.76 141.893H1540.1V92.2863H1592.76V141.893ZM1648.21 1082.09H1595.55V1032.48H1648.21V1082.09ZM1648.21 1029.86H1595.55V980.252H1648.21V1029.86ZM1648.21 977.633H1595.55V928.025H1648.21V977.633ZM1648.21 925.381H1595.55V875.772H1648.21V925.381ZM1648.21 873.153H1595.55V823.521H1648.21V873.153ZM1648.21 820.925H1595.55V771.318H1648.21V820.925ZM1648.21 768.698H1595.55V719.089H1648.21V768.698ZM1648.21 716.446H1595.55V666.838H1648.21V716.446ZM1648.21 664.219H1595.55V614.61H1648.21V664.219ZM1648.21 611.991H1595.55V562.384H1648.21V611.991ZM1648.21 559.763H1595.55V510.156H1648.21V559.763ZM1648.21 507.511H1595.55V457.904H1648.21V507.511ZM1648.21 455.283H1595.55V405.676H1648.21V455.283ZM1648.21 403.056H1595.55V353.448H1648.21V403.056ZM1648.21 350.829H1595.55V301.22H1648.21V350.829ZM1648.21 298.576H1595.55V248.969H1648.21V298.576ZM1648.21 246.349H1595.55V196.741H1648.21V246.349ZM1648.21 194.121H1595.55V144.489H1648.21V194.121ZM1703.66 1082.09H1650.99V1032.48H1703.66V1082.09ZM1703.66 1029.86H1650.99V980.252H1703.66V1029.86ZM1703.66 977.633H1650.99V928.025H1703.66V977.633ZM1703.66 925.381H1650.99V875.772H1703.66V925.381ZM1703.66 873.153H1650.99V823.521H1703.66V873.153ZM1703.66 820.925H1650.99V771.318H1703.66V820.925ZM1703.66 768.698H1650.99V719.089H1703.66V768.698ZM1703.66 716.446H1650.99V666.838H1703.66V716.446ZM1703.66 664.219H1650.99V614.61H1703.66V664.219ZM1703.66 611.991H1650.99V562.384H1703.66V611.991ZM1703.66 559.763H1650.99V510.156H1703.66V559.763ZM1703.66 507.511H1650.99V457.904H1703.66V507.511ZM1703.66 455.283H1650.99V405.676H1703.66V455.283ZM1703.66 403.056H1650.99V353.448H1703.66V403.056ZM1703.66 350.829H1650.99V301.22H1703.66V350.829ZM1703.66 298.576H1650.99V248.969H1703.66V298.576ZM1703.66 246.349H1650.99V196.741H1703.66V246.349ZM1703.66 194.121H1650.99V144.489H1703.66V194.121ZM1703.66 141.893H1650.99V92.2863H1703.66V141.893ZM1703.66 89.6418H1650.99V40.0346H1703.66V89.6418ZM1759.14 1082.09H1706.47V1032.48H1759.14V1082.09ZM1759.14 1029.86H1706.47V980.252H1759.14V1029.86ZM1759.14 977.633H1706.47V928.025H1759.14V977.633ZM1759.14 925.381H1706.47V875.772H1759.14V925.381ZM1759.14 873.153H1706.47V823.521H1759.14V873.153ZM1759.14 820.925H1706.47V771.318H1759.14V820.925ZM1759.14 768.698H1706.47V719.089H1759.14V768.698ZM1759.14 716.446H1706.47V666.838H1759.14V716.446ZM1759.14 664.219H1706.47V614.61H1759.14V664.219ZM1759.14 611.991H1706.47V562.384H1759.14V611.991ZM1759.14 559.763H1706.47V510.156H1759.14V559.763ZM1759.14 507.511H1706.47V457.904H1759.14V507.511ZM1759.14 455.283H1706.47V405.676H1759.14V455.283ZM1759.14 403.056H1706.47V353.448H1759.14V403.056ZM1759.14 350.829H1706.47V301.22H1759.14V350.829ZM1759.14 298.576H1706.47V248.969H1759.14V298.576ZM1759.14 246.349H1706.47V196.741H1759.14V246.349ZM1759.14 194.121H1706.47V144.489H1759.14V194.121ZM1814.59 1082.09H1761.92V1032.48H1814.59V1082.09ZM1814.59 1029.86H1761.92V980.252H1814.59V1029.86ZM1814.59 977.633H1761.92V928.025H1814.59V977.633ZM1814.59 925.381H1761.92V875.772H1814.59V925.381ZM1814.59 873.153H1761.92V823.521H1814.59V873.153ZM1814.59 820.925H1761.92V771.318H1814.59V820.925ZM1814.59 768.698H1761.92V719.089H1814.59V768.698ZM1814.59 716.446H1761.92V666.838H1814.59V716.446ZM1814.59 664.219H1761.92V614.61H1814.59V664.219ZM1814.59 611.991H1761.92V562.384H1814.59V611.991ZM1814.59 559.763H1761.92V510.156H1814.59V559.763ZM1814.59 507.511H1761.92V457.904H1814.59V507.511ZM1814.59 455.283H1761.92V405.676H1814.59V455.283ZM1814.59 403.056H1761.92V353.448H1814.59V403.056ZM1814.59 350.829H1761.92V301.22H1814.59V350.829ZM1814.59 298.576H1761.92V248.969H1814.59V298.576ZM1814.59 246.349H1761.92V196.741H1814.59V246.349ZM1814.59 194.121H1761.92V144.489H1814.59V194.121ZM1814.59 141.893H1761.92V92.2863H1814.59V141.893ZM1870.03 1082.09H1817.37V1032.48H1870.03V1082.09ZM1870.03 1029.86H1817.37V980.252H1870.03V1029.86ZM1870.03 977.633H1817.37V928.025H1870.03V977.633ZM1870.03 925.381H1817.37V875.772H1870.03V925.381ZM1870.03 873.153H1817.37V823.521H1870.03V873.153ZM1870.03 820.925H1817.37V771.318H1870.03V820.925ZM1870.03 768.698H1817.37V719.089H1870.03V768.698ZM1870.03 716.446H1817.37V666.838H1870.03V716.446ZM1870.03 664.219H1817.37V614.61H1870.03V664.219ZM1870.03 611.991H1817.37V562.384H1870.03V611.991ZM1870.03 559.763H1817.37V510.156H1870.03V559.763ZM1870.03 507.511H1817.37V457.904H1870.03V507.511ZM1870.03 455.283H1817.37V405.676H1870.03V455.283ZM1870.03 403.056H1817.37V353.448H1870.03V403.056ZM1870.03 350.829H1817.37V301.22H1870.03V350.829ZM1870.03 298.576H1817.37V248.969H1870.03V298.576ZM1870.03 246.349H1817.37V196.741H1870.03V246.349ZM1870.03 194.121H1817.37V144.489H1870.03V194.121ZM1870.03 141.893H1817.37V92.2863H1870.03V141.893ZM1870.03 89.6418H1817.37V40.0346H1870.03V89.6418Z" fill="#ECECEC"/>
</g>
<defs>
<filter id="filter0_d_522_666" x="-20" y="-16" width="1960" height="1193.8" filterUnits="userSpaceOnUse" color-interpolation-filters="sRGB">
<feFlood flood-opacity="0" result="BackgroundImageFix"/>
<feColorMatrix in="SourceAlpha" type="matrix" values="0 0 0 0 0 0 0 0 0 0 0 0 0 0 0 0 0 0 127 0" result="hardAlpha"/>
<feOffset dy="4"/>
<feGaussianBlur stdDeviation="10"/>
<feComposite in2="hardAlpha" operator="out"/>
<feColorMatrix type="matrix" values="0 0 0 0 0 0 0 0 0 0 0 0 0 0 0 0 0 0 0.25 0"/>
<feBlend mode="normal" in2="BackgroundImageFix" result="effect1_dropShadow_522_666"/>
<feBlend mode="normal" in="SourceGraphic" in2="effect1_dropShadow_522_666" result="shape"/>
</filter>
<clipPath id="clip0_522_666">
<rect width="1920" height="212" fill="white"/>
</clipPath>
</defs>
</svg>
