<svg width="1920" height="1154" viewBox="0 0 1920 1154" fill="none" xmlns="http://www.w3.org/2000/svg">
<g clip-path="url(#clip0_329_1345)">
<g filter="url(#filter0_d_329_1345)">
<path d="M1920 1080.92L1915.56 8.49219C1915.56 3.80688 1911.5 0.0300293 1906.54 0.0300293H1750.47V32.3096C1765.88 35.3998 1777.42 48.2765 1777.42 63.7546C1777.42 81.5122 1762.16 95.9102 1743.37 95.9102C1724.58 95.9102 1709.33 81.5122 1709.33 63.7546C1709.33 48.3015 1720.89 35.3998 1736.28 32.3096V0.00500488H1619.9V32.2845C1635.31 35.3748 1646.85 48.2527 1646.85 63.7296C1646.85 81.4884 1631.59 95.8864 1612.8 95.8864C1594.01 95.8864 1578.75 81.4884 1578.75 63.7296C1578.75 48.2765 1590.32 35.3748 1605.71 32.2845V0.00500488H1489.32V32.2845C1504.74 35.3748 1516.27 48.2527 1516.27 63.7296C1516.27 81.4884 1501.02 95.8864 1482.23 95.8864C1463.44 95.8864 1448.18 81.4884 1448.18 63.7296C1448.18 48.2765 1459.75 35.3748 1475.13 32.2845V0.00500488H1358.75V32.2845C1374.16 35.3748 1385.7 48.2527 1385.7 63.7296C1385.7 81.4884 1370.45 95.8864 1351.65 95.8864C1332.86 95.8864 1317.61 81.4884 1317.61 63.7296C1317.61 48.2765 1329.17 35.3748 1344.56 32.2845V0.00500488H1228.18V32.2845C1243.59 35.3748 1255.13 48.2527 1255.13 63.7296C1255.13 81.4884 1239.87 95.8864 1221.08 95.8864C1202.29 95.8864 1187.04 81.4884 1187.04 63.7296C1187.04 48.2765 1198.6 35.3748 1213.99 32.2845V0.00500488H1097.6V32.2845C1113.02 35.3748 1124.55 48.2527 1124.55 63.7296C1124.55 81.4884 1109.3 95.8864 1090.51 95.8864C1071.72 95.8864 1056.46 81.4884 1056.46 63.7296C1056.46 48.2765 1068.03 35.3748 1083.41 32.2845V0.00500488H967.03V32.2845C982.442 35.3748 993.981 48.2527 993.981 63.7296C993.981 81.4884 978.726 95.8864 959.908 95.8864C941.093 95.8864 925.863 81.4884 925.863 63.7296C925.863 48.2765 937.429 35.3748 952.813 32.2845V0.00500488H836.431V32.2845C851.843 35.3748 863.383 48.2527 863.383 63.7296C863.383 81.4884 848.126 95.8864 829.31 95.8864C810.494 95.8864 795.262 81.4884 795.262 63.7296C795.262 48.2765 806.828 35.3748 822.215 32.2845V0.00500488H705.832V32.2845C721.245 35.3748 732.783 48.2527 732.783 63.7296C732.783 81.4884 717.528 95.8864 698.737 95.8864C679.947 95.8864 664.664 81.4884 664.664 63.7296C664.664 48.2765 676.23 35.3748 691.616 32.2845V0.00500488H575.234V32.2845C590.645 35.3748 602.184 48.2527 602.184 63.7296C602.184 81.4884 586.929 95.8864 568.138 95.8864C549.347 95.8864 534.065 81.4884 534.065 63.7296C534.065 48.2765 545.631 35.3748 561.016 32.2845V0.00500488H444.636V32.2845C460.047 35.3748 471.586 48.2527 471.586 63.7296C471.586 81.4884 456.331 95.8864 437.541 95.8864C418.749 95.8864 403.493 81.4884 403.493 63.7296C403.493 48.2765 415.059 35.3748 430.445 32.2845V0.00500488H314.063V32.2845C329.474 35.3748 341.013 48.2527 341.013 63.7296C341.013 81.4884 325.758 95.8864 306.968 95.8864C288.176 95.8864 272.92 81.4884 272.92 63.7296C272.92 48.2765 284.486 35.3748 299.872 32.2845V0.00500488H183.49V32.2845C198.901 35.3748 210.44 48.2527 210.44 63.7296C210.44 81.4884 195.185 95.8864 176.395 95.8864C157.603 95.8864 142.347 81.4884 142.347 63.7296C142.347 48.2765 153.913 35.3748 169.299 32.2845V0.00500488H11.2796C5.04207 0.00500488 0 4.76416 0 10.6512V1140.22C40.9336 1140.22 86.5213 1108.29 125.271 1120.72C136.888 1124.45 152.014 1131.37 159.214 1122.02C160.514 1120.33 161.319 1118.25 163.035 1116.92C166.595 1114.22 171.845 1116.16 175.899 1118.15C191.39 1125.7 207.218 1132.62 223.357 1138.85C227.931 1140.62 232.687 1142.36 237.626 1142.36C243.68 1142.36 249.372 1139.78 254.831 1137.23C272.686 1128.92 289.682 1118.71 308.368 1112.29C329.057 1105.17 394.915 1129.5 394.915 1129.5C414.954 1115.99 475.095 1126.81 475.095 1126.81L626.849 1151.11L729.924 1118.69L772.86 1126.81L804.36 1107.9L844.436 1126.81C844.436 1126.81 878.794 1115.99 901.691 1118.69C924.588 1121.39 964.692 1142.99 964.692 1142.99L1004.77 1134.9L1036.27 1148.42C1036.27 1148.42 1084.95 1132.2 1104.98 1129.51C1125.02 1126.81 1236.7 1153.81 1236.7 1153.81C1236.7 1153.81 1365.53 1107.87 1397.03 1105.17C1428.53 1102.47 1468.61 1113.27 1468.61 1113.27L1517.29 1091.66L1545.93 1115.97L1577.43 1137.57L1606.07 1115.97L1634.71 1137.57L1643.29 1126.76L1737.76 1142.97L1783.58 1086.24L1826.51 1107.85L1846.55 1099.75C1858.01 1113.27 1880.91 1126.78 1880.91 1126.78L1920 1080.84V1080.92Z" fill="#FAFAFA"/>
</g>
<path d="M1872.82 1032.5H1920V1029.88H1872.82V980.275H1919.79V977.656H1872.82V928.049H1919.58V925.428H1872.82V875.821H1919.38V873.202H1872.82V823.569H1919.17V820.949H1872.82V771.341H1918.96V768.722H1872.82V719.112H1918.75V716.493H1872.82V666.885H1918.57V664.265H1872.82V614.658H1918.36V612.037H1872.82V562.43H1918.15V559.81H1872.82V510.202H1917.95V507.582H1872.82V457.975H1917.74V455.354H1872.82V405.747H1917.53V403.128H1872.82V353.519H1917.32V350.9H1872.82V301.293H1917.11V298.672H1872.82V249.065H1916.93V246.444H1872.82V196.837H1916.72V194.217H1872.82V144.585H1916.52V141.964H1872.82V92.3572H1916.31V89.7378H1872.82V40.1293H1916.1V37.5099H1872.82V0.0227051H1870.04V37.4374H1817.37V0.0227051H1814.59V37.4374H1763.4C1764.6 38.2441 1765.74 39.1011 1766.83 40.0568H1814.59V89.6639H1763.63C1762.18 90.6434 1760.64 91.5254 1759.06 92.2834H1759.14V141.893H1706.47V92.2847H1728.52C1726.9 91.5266 1725.37 90.6447 1723.94 89.6653H1706.47V40.058H1720.74C1721.83 39.1273 1722.98 38.2454 1724.17 37.4374H1706.47V0.0227051H1703.69V37.4374H1651.02V0.0227051H1648.24V37.4374H1632.82C1634.02 38.2454 1635.16 39.1023 1636.25 40.058H1648.24V89.6653H1633.06C1631.6 90.6447 1630.07 91.5266 1628.48 92.2847H1648.24V141.893H1595.57V92.2847H1597.94C1596.12 91.4282 1594.4 90.4246 1592.79 89.2737V89.6653H1540.12V40.058H1590.16C1591.83 38.6132 1593.62 37.3147 1595.57 36.2126V0.0239258H1592.79V37.4386H1540.12V0.0239258H1537.34V37.4386H1502.25C1503.44 38.2454 1504.59 39.1023 1505.68 40.058H1537.34V89.6653H1502.48C1501.03 90.6447 1499.49 91.5266 1497.91 92.2847H1537.34V141.893H1484.67V95.6145C1484 95.6646 1483.32 95.7134 1482.65 95.7134C1482.39 95.7134 1482.15 95.6884 1481.92 95.6884V141.893H1429.25V92.2847H1467.39C1465.78 91.5266 1464.24 90.6447 1462.81 89.6653H1429.25V40.058H1459.61C1460.71 39.1273 1461.85 38.2454 1463.04 37.4374H1429.25V0.0227051H1426.47V37.4374H1373.8V0.0227051H1371.02V36.9971C1372.48 37.9277 1373.85 38.9309 1375.13 40.058H1426.47V89.6653H1373.8V88.343C1371.83 89.8854 1369.67 91.1826 1367.35 92.2847H1371.02V141.893H1318.35V92.2847H1336.81C1335.2 91.5266 1333.66 90.6447 1332.23 89.6653H1318.35V67.8732C1318.14 66.4772 1318.01 65.0812 1318.01 63.6376C1318.01 62.1927 1318.14 60.7731 1318.35 59.377V40.058H1329.04C1330.13 39.1273 1331.27 38.2454 1332.47 37.4374H1318.35V0.0227051H1315.57V37.4374H1262.9V0.0227051H1260.12V37.4374H1241.12C1242.31 38.2454 1243.46 39.1023 1244.55 40.058H1260.12V89.6653H1241.35C1239.9 90.6447 1238.36 91.5266 1236.78 92.2847H1260.12V141.893H1207.45V92.8237C1205.4 91.9419 1203.45 90.8899 1201.66 89.6403H1152V40.033H1198.46C1199.55 39.1023 1200.7 38.2217 1201.89 37.4136H1152V0.0239258H1149.22V37.4386H1110.54C1111.74 38.2454 1112.88 39.1023 1113.97 40.058H1149.22V89.6653H1110.77C1109.32 90.6447 1107.78 91.5266 1106.2 92.2847H1149.22V141.893H1096.56V95.2468C1095.65 95.3944 1094.71 95.517 1093.77 95.5908V141.917H1041.11V92.3097H1075.65C1074.04 91.5504 1072.51 90.6685 1071.08 89.6903H1041.1V40.0818H1067.88C1068.97 39.1511 1070.12 38.2705 1071.31 37.4624H1041.11V0.0227051H1038.32V37.4374H985.658V0.0227051H982.876V37.4374H979.965C982.043 38.8334 983.941 40.4249 985.658 42.212V40.058H1038.33V89.6653H985.658V85.0619C984.774 85.9675 983.864 86.8495 982.876 87.6576V89.6653H980.199C978.743 90.6447 977.209 91.5266 975.623 92.2847H982.876V141.893H930.209V92.2847H945.078C943.467 91.5266 941.933 90.6447 940.503 89.6653H930.209V78.5485C929.013 76.4181 928.103 74.1415 927.427 71.7422V89.6653H874.76V40.058H927.427V55.3854C928.078 53.0587 929.039 50.832 930.209 48.7505V40.0568H937.305C938.397 39.1273 939.542 38.2454 940.736 37.4374H930.209V0.0227051H927.427V37.4374H874.76V0.0227051H871.978V37.4374H849.388C850.584 38.2454 851.727 39.1023 852.819 40.058H871.978V89.6653H849.621C848.166 90.6447 846.633 91.5266 845.046 92.2847H871.978V141.893H819.312V94.146C818.376 93.8521 817.44 93.558 816.53 93.1915V141.893H763.862V92.2847H814.503C812.891 91.5266 811.357 90.6447 809.928 89.6653H763.862V40.058H806.73C807.822 39.1273 808.965 38.2454 810.16 37.4374H763.862V0.0227051H761.082V37.4374H718.813C720.007 38.2454 721.151 39.1023 722.243 40.058H761.082V89.6653H719.046C717.589 90.6447 716.056 91.5266 714.471 92.2847H761.082V141.893H708.413V94.4888C707.504 94.734 706.568 94.9541 705.633 95.1255V141.893H652.964V92.2847H683.926C682.313 91.5266 680.779 90.6447 679.351 89.6653H652.964V40.058H676.152C677.245 39.1273 678.388 38.2454 679.584 37.4374H652.965V0.0227051H650.183V37.4374H602.946V0.0227051H600.164V37.4374H588.232C589.428 38.2454 590.572 39.1023 591.663 40.058H600.164V51.5913C601.776 55.3115 602.686 59.377 602.686 63.6376C602.686 67.8982 601.776 71.9862 600.164 75.7089V89.6653H588.466C587.01 90.6447 585.476 91.5266 583.891 92.2847H600.164V141.893H547.497V92.2847H553.346C551.734 91.5266 550.2 90.6447 548.77 89.6653H547.497V88.7833C546.535 88.0741 545.599 87.3148 544.715 86.4817V89.6653H492.048V40.058H544.715V40.816C546.042 39.5918 547.472 38.4659 549.004 37.4386H547.497V0.0239258H544.715V37.4386H492.048V0.0239258H489.266V37.4386H457.655C458.851 38.2454 459.995 39.1023 461.086 40.058H489.266V89.6653H457.89C456.433 90.6447 454.9 91.5266 453.313 92.2847H489.266V141.893H436.6V95.6396C435.665 95.5896 434.728 95.542 433.818 95.4432V141.893H381.151V92.2847H422.77C421.158 91.5266 419.625 90.6447 418.195 89.6653H381.151V40.058H414.997C416.089 39.1273 417.233 38.2454 418.428 37.4374H381.151V0.0227051H378.37V37.4374H327.08C328.276 38.2454 329.419 39.1023 330.51 40.058H378.37V89.6653H327.314C325.858 90.6447 324.324 91.5266 322.738 92.2847H322.921V141.893H270.252V92.2847H292.193C290.582 91.5266 289.048 90.6447 287.618 89.6653H270.252V40.058H284.42C285.512 39.1273 286.656 38.2454 287.851 37.4374H270.253V0.0227051H267.473V37.4374H214.804V0.0227051H212.023V37.4374H196.503C197.7 38.2454 198.844 39.1023 199.935 40.058H212.023V89.6653H196.737C195.282 90.6447 193.749 91.5266 192.162 92.2847H212.023V141.893H159.356V92.2847H161.617C159.85 91.4528 158.159 90.4484 156.574 89.3463V89.6653H103.906V40.058H153.843C155.534 38.5883 157.379 37.266 159.355 36.1401V0.0239258H156.573V37.4386H103.906V0.0239258H101.124V37.4386H48.4566V0.0239258H45.6745V37.4386H0V40.058H45.4404V89.6653H0V92.2847H45.4404V141.893H0V144.513H45.4404V194.145H0V196.764H45.4404V246.373H0V248.992H45.4404V298.599H0V301.22H45.4404V350.827H0V353.448H45.4404V403.055H0V405.675H45.4404V455.283H0V457.903H45.4404V507.51H0V510.13H45.4404V559.738H0V562.357H45.4404V611.966H0V614.585H45.4404V664.192H0V666.813H45.4404V716.42H0V719.041H45.4404V768.648H0V771.268H45.4404V820.876H0V823.495H45.4404V873.128H0V875.747H45.4404V925.356H0V927.975H45.4404V977.582H0V980.203H45.4404V1029.81H0V1032.43H45.4404V1082.04H0V1084.66H45.4404V1129.37C46.3769 1129.07 47.2859 1128.81 48.2224 1128.51V1084.66H100.89V1116.03C101.826 1115.98 102.735 1115.93 103.672 1115.9V1084.66H156.339V1122.68C157.353 1122.02 158.288 1121.19 159.121 1120.14V1084.63H211.788V1132.21C212.698 1132.58 213.634 1132.94 214.57 1133.31V1084.63H267.237V1129.17C268.173 1128.71 269.083 1128.24 270.019 1127.78V1084.63H322.686V1109.17C323.595 1109.22 324.506 1109.29 325.467 1109.39V1084.63H378.136V1121.78C379.097 1122.07 380.007 1122.39 380.916 1122.69V1084.63H433.585V1120.75C434.52 1120.75 435.43 1120.77 436.366 1120.82V1084.63H489.034V1127.02L491.815 1127.46V1084.63H544.482V1134.24H534.24L550.592 1136.86H599.931V1144.75L602.713 1145.19V1136.86H649.948V1141.83L652.729 1140.95V1136.84H665.805L674.15 1134.22H652.727V1084.61H705.396V1124.42L708.177 1123.54V1084.61H760.845V1122.49L763.626 1123V1084.58H816.294V1111.44L819.075 1112.74V1084.58H871.742V1118.35C872.652 1118.2 873.589 1118.05 874.524 1117.91V1084.61H927.191V1123.74C928.128 1124.08 929.038 1124.45 929.973 1124.81V1084.61H982.641V1134.22H951.42C953.369 1135.15 955.188 1136.03 956.801 1136.84H982.668V1137.35L998.186 1134.22H985.449V1084.61H1038.12V1134.22H1008.09L1014.2 1136.84H1038.11V1145.8C1038.84 1145.55 1039.75 1145.26 1040.9 1144.89V1136.84H1066.92C1069.91 1135.95 1072.98 1135.07 1076.04 1134.21H1040.9V1084.61H1093.57V1129.71C1094.5 1129.49 1095.44 1129.29 1096.35 1129.1V1084.63H1149.01V1132.75C1149.92 1132.92 1150.86 1133.09 1151.8 1133.26V1084.63H1204.47V1134.24H1156.97C1161.29 1135.07 1165.68 1135.95 1170.07 1136.86H1204.47V1144.26C1205.4 1144.48 1206.34 1144.67 1207.25 1144.89V1136.86H1259.91V1143.72C1260.82 1143.4 1261.76 1143.08 1262.7 1142.76V1136.86H1280.06C1282.61 1136 1285.21 1135.12 1287.86 1134.24H1262.7V1084.63H1315.36V1125.23C1316.3 1124.94 1317.21 1124.64 1318.14 1124.35V1084.63H1370.81V1108.68C1371.75 1108.43 1372.68 1108.19 1373.59 1107.97V1084.63H1426.26V1103.76C1427.2 1103.85 1428.11 1103.95 1429.04 1104.05V1084.63H1481.71V1105.59L1484.49 1104.37V1084.63H1537.16V1106.4L1539.94 1108.75V1084.63H1592.61V1124.3L1595.39 1122.22V1084.66H1648.06V1125.6L1650.84 1126.06V1084.63H1703.51V1134.24H1698.67L1713.96 1136.86H1741.3L1743.41 1134.24H1706.26V1084.63H1758.93V1115.04L1761.71 1111.62V1084.63H1783.55L1783.78 1084.34L1784.38 1084.63H1814.4V1099.72L1817.19 1101.11V1084.63H1869.85V1117.47C1870.82 1118.13 1871.75 1118.77 1872.64 1119.35V1084.61H1915.4L1917.63 1081.99H1872.64V1032.38L1872.82 1032.5ZM100.89 1082.11H48.2224V1032.5H100.89V1082.11ZM100.89 1029.88H48.2224V980.275H100.89V1029.88ZM100.89 977.656H48.2224V928.049H100.89V977.656ZM100.89 925.404H48.2224V875.796H100.89V925.404ZM100.89 873.176H48.2224V823.544H100.89V873.176ZM100.89 820.949H48.2224V771.341H100.89V820.949ZM100.89 768.722H48.2224V719.112H100.89V768.722ZM100.89 716.469H48.2224V666.862H100.89V716.469ZM100.89 664.242H48.2224V614.634H100.89V664.242ZM100.89 612.014H48.2224V562.407H100.89V612.014ZM100.89 559.786H48.2224V510.179H100.89V559.786ZM100.89 507.535H48.2224V457.928H100.89V507.535ZM100.89 455.307H48.2224V405.7H100.89V455.307ZM100.89 403.079H48.2224V353.472H100.89V403.079ZM100.89 350.852H48.2224V301.244H100.89V350.852ZM100.89 298.599H48.2224V248.992H100.89V298.599ZM100.89 246.373H48.2224V196.764H100.89V246.373ZM100.89 194.145H48.2224V144.513H100.89V194.145ZM100.89 141.917H48.2224V92.3097H100.89V141.917ZM100.89 89.6653H48.2224V40.058H100.89V89.6653ZM156.339 1082.11H103.672V1032.5H156.339V1082.11ZM156.339 1029.88H103.672V980.275H156.339V1029.88ZM156.339 977.656H103.672V928.049H156.339V977.656ZM156.339 925.404H103.672V875.796H156.339V925.404ZM156.339 873.176H103.672V823.544H156.339V873.176ZM156.339 820.949H103.672V771.341H156.339V820.949ZM156.339 768.722H103.672V719.112H156.339V768.722ZM156.339 716.469H103.672V666.862H156.339V716.469ZM156.339 664.242H103.672V614.634H156.339V664.242ZM156.339 612.014H103.672V562.407H156.339V612.014ZM156.339 559.786H103.672V510.179H156.339V559.786ZM156.339 507.535H103.672V457.928H156.339V507.535ZM156.339 455.307H103.672V405.7H156.339V455.307ZM156.339 403.079H103.672V353.472H156.339V403.079ZM156.339 350.852H103.672V301.244H156.339V350.852ZM156.339 298.599H103.672V248.992H156.339V298.599ZM156.339 246.373H103.672V196.764H156.339V246.373ZM156.339 194.145H103.672V144.513H156.339V194.145ZM156.339 141.917H103.672V92.3097H156.339V141.917ZM211.814 1082.11H159.146V1032.5H211.814V1082.11ZM211.814 1029.88H159.146V980.275H211.814V1029.88ZM211.814 977.656H159.146V928.049H211.814V977.656ZM211.814 925.404H159.146V875.796H211.814V925.404ZM211.814 873.176H159.146V823.544H211.814V873.176ZM211.814 820.949H159.146V771.341H211.814V820.949ZM211.814 768.722H159.146V719.112H211.814V768.722ZM211.814 716.469H159.146V666.862H211.814V716.469ZM211.814 664.242H159.146V614.634H211.814V664.242ZM211.814 612.014H159.146V562.407H211.814V612.014ZM211.814 559.786H159.146V510.179H211.814V559.786ZM211.814 507.535H159.146V457.928H211.814V507.535ZM211.814 455.307H159.146V405.7H211.814V455.307ZM211.814 403.079H159.146V353.472H211.814V403.079ZM211.814 350.852H159.146V301.244H211.814V350.852ZM211.814 298.599H159.146V248.992H211.814V298.599ZM211.814 246.373H159.146V196.764H211.814V246.373ZM211.814 194.145H159.146V144.513H211.814V194.145ZM267.264 1082.11H214.595V1032.5H267.264V1082.11ZM267.264 1029.88H214.595V980.275H267.264V1029.88ZM267.264 977.656H214.595V928.049H267.264V977.656ZM267.264 925.404H214.595V875.796H267.264V925.404ZM267.264 873.176H214.595V823.544H267.264V873.176ZM267.264 820.949H214.595V771.341H267.264V820.949ZM267.264 768.722H214.595V719.112H267.264V768.722ZM267.264 716.469H214.595V666.862H267.264V716.469ZM267.264 664.242H214.595V614.634H267.264V664.242ZM267.264 612.014H214.595V562.407H267.264V612.014ZM267.264 559.786H214.595V510.179H267.264V559.786ZM267.264 507.535H214.595V457.928H267.264V507.535ZM267.264 455.307H214.595V405.7H267.264V455.307ZM267.264 403.079H214.595V353.472H267.264V403.079ZM267.264 350.852H214.595V301.244H267.264V350.852ZM267.264 298.599H214.595V248.992H267.264V298.599ZM267.264 246.373H214.595V196.764H267.264V246.373ZM267.264 194.145H214.595V144.513H267.264V194.145ZM267.264 141.917H214.595V92.3097H267.264V141.917ZM267.264 89.6653H214.595V40.058H267.264V89.6653ZM322.713 1082.11H270.044V1032.5H322.713V1082.11ZM322.713 1029.88H270.044V980.275H322.713V1029.88ZM322.713 977.656H270.044V928.049H322.713V977.656ZM322.713 925.404H270.044V875.796H322.713V925.404ZM322.713 873.176H270.044V823.544H322.713V873.176ZM322.713 820.949H270.044V771.341H322.713V820.949ZM322.713 768.722H270.044V719.112H322.713V768.722ZM322.713 716.469H270.044V666.862H322.713V716.469ZM322.713 664.242H270.044V614.634H322.713V664.242ZM322.713 612.014H270.044V562.407H322.713V612.014ZM322.713 559.786H270.044V510.179H322.713V559.786ZM322.713 507.535H270.044V457.928H322.713V507.535ZM322.713 455.307H270.044V405.7H322.713V455.307ZM322.713 403.079H270.044V353.472H322.713V403.079ZM322.713 350.852H270.044V301.244H322.713V350.852ZM322.713 298.599H270.044V248.992H322.713V298.599ZM322.713 246.373H270.044V196.764H322.713V246.373ZM322.713 194.145H270.044V144.513H322.713V194.145ZM378.161 1082.11H325.494V1032.5H378.161V1082.11ZM378.161 1029.88H325.494V980.275H378.161V1029.88ZM378.161 977.656H325.494V928.049H378.161V977.656ZM378.161 925.404H325.494V875.796H378.161V925.404ZM378.161 873.176H325.494V823.544H378.161V873.176ZM378.161 820.949H325.494V771.341H378.161V820.949ZM378.161 768.722H325.494V719.112H378.161V768.722ZM378.161 716.469H325.494V666.862H378.161V716.469ZM378.161 664.242H325.494V614.634H378.161V664.242ZM378.161 612.014H325.494V562.407H378.161V612.014ZM378.161 559.786H325.494V510.179H378.161V559.786ZM378.161 507.535H325.494V457.928H378.161V507.535ZM378.161 455.307H325.494V405.7H378.161V455.307ZM378.161 403.079H325.494V353.472H378.161V403.079ZM378.161 350.852H325.494V301.244H378.161V350.852ZM378.161 298.599H325.494V248.992H378.161V298.599ZM378.161 246.373H325.494V196.764H378.161V246.373ZM378.161 194.145H325.494V144.513H378.161V194.145ZM378.161 141.917H325.494V92.3097H378.161V141.917ZM433.636 1082.11H380.969V1032.5H433.636V1082.11ZM433.636 1029.88H380.969V980.275H433.636V1029.88ZM433.636 977.656H380.969V928.049H433.636V977.656ZM433.636 925.404H380.969V875.796H433.636V925.404ZM433.636 873.176H380.969V823.544H433.636V873.176ZM433.636 820.949H380.969V771.341H433.636V820.949ZM433.636 768.722H380.969V719.112H433.636V768.722ZM433.636 716.469H380.969V666.862H433.636V716.469ZM433.636 664.242H380.969V614.634H433.636V664.242ZM433.636 612.014H380.969V562.407H433.636V612.014ZM433.636 559.786H380.969V510.179H433.636V559.786ZM433.636 507.535H380.969V457.928H433.636V507.535ZM433.636 455.307H380.969V405.7H433.636V455.307ZM433.636 403.079H380.969V353.472H433.636V403.079ZM433.636 350.852H380.969V301.244H433.636V350.852ZM433.636 298.599H380.969V248.992H433.636V298.599ZM433.636 246.373H380.969V196.764H433.636V246.373ZM433.636 194.145H380.969V144.513H433.636V194.145ZM489.085 1082.11H436.418V1032.5H489.085V1082.11ZM489.085 1029.88H436.418V980.275H489.085V1029.88ZM489.085 977.656H436.418V928.049H489.085V977.656ZM489.085 925.404H436.418V875.796H489.085V925.404ZM489.085 873.176H436.418V823.544H489.085V873.176ZM489.085 820.949H436.418V771.341H489.085V820.949ZM489.085 768.722H436.418V719.112H489.085V768.722ZM489.085 716.469H436.418V666.862H489.085V716.469ZM489.085 664.242H436.418V614.634H489.085V664.242ZM489.085 612.014H436.418V562.407H489.085V612.014ZM489.085 559.786H436.418V510.179H489.085V559.786ZM489.085 507.535H436.418V457.928H489.085V507.535ZM489.085 455.307H436.418V405.7H489.085V455.307ZM489.085 403.079H436.418V353.472H489.085V403.079ZM489.085 350.852H436.418V301.244H489.085V350.852ZM489.085 298.599H436.418V248.992H489.085V298.599ZM489.085 246.373H436.418V196.764H489.085V246.373ZM489.085 194.145H436.418V144.513H489.085V194.145ZM544.535 1082.11H491.867V1032.5H544.535V1082.11ZM544.535 1029.88H491.867V980.275H544.535V1029.88ZM544.535 977.656H491.867V928.049H544.535V977.656ZM544.535 925.404H491.867V875.796H544.535V925.404ZM544.535 873.176H491.867V823.544H544.535V873.176ZM544.535 820.949H491.867V771.341H544.535V820.949ZM544.535 768.722H491.867V719.112H544.535V768.722ZM544.535 716.469H491.867V666.862H544.535V716.469ZM544.535 664.242H491.867V614.634H544.535V664.242ZM544.535 612.014H491.867V562.407H544.535V612.014ZM544.535 559.786H491.867V510.179H544.535V559.786ZM544.535 507.535H491.867V457.928H544.535V507.535ZM544.535 455.307H491.867V405.7H544.535V455.307ZM544.535 403.079H491.867V353.472H544.535V403.079ZM544.535 350.852H491.867V301.244H544.535V350.852ZM544.535 298.599H491.867V248.992H544.535V298.599ZM544.535 246.373H491.867V196.764H544.535V246.373ZM544.535 194.145H491.867V144.513H544.535V194.145ZM544.535 141.917H491.867V92.3097H544.535V141.917ZM599.984 1134.34H547.317V1084.73H599.984V1134.34ZM599.984 1082.11H547.317V1032.5H599.984V1082.11ZM599.984 1029.88H547.317V980.275H599.984V1029.88ZM599.984 977.656H547.317V928.049H599.984V977.656ZM599.984 925.404H547.317V875.796H599.984V925.404ZM599.984 873.176H547.317V823.544H599.984V873.176ZM599.984 820.949H547.317V771.341H599.984V820.949ZM599.984 768.722H547.317V719.112H599.984V768.722ZM599.984 716.469H547.317V666.862H599.984V716.469ZM599.984 664.242H547.317V614.634H599.984V664.242ZM599.984 612.014H547.317V562.407H599.984V612.014ZM599.984 559.786H547.317V510.179H599.984V559.786ZM599.984 507.535H547.317V457.928H599.984V507.535ZM599.984 455.307H547.317V405.7H599.984V455.307ZM599.984 403.079H547.317V353.472H599.984V403.079ZM599.984 350.852H547.317V301.244H599.984V350.852ZM599.984 298.599H547.317V248.992H599.984V298.599ZM599.984 246.373H547.317V196.764H599.984V246.373ZM599.984 194.145H547.317V144.513H599.984V194.145ZM650.026 1134.34H602.791V1084.73H650.026V1134.34ZM650.026 1082.11H602.791V1032.5H650.026V1082.11ZM650.026 1029.88H602.791V980.275H650.026V1029.88ZM650.026 977.656H602.791V928.049H650.026V977.656ZM650.026 925.404H602.791V875.796H650.026V925.404ZM650.026 873.176H602.791V823.544H650.026V873.176ZM650.026 820.949H602.791V771.341H650.026V820.949ZM650.026 768.722H602.791V719.112H650.026V768.722ZM650.026 716.469H602.791V666.862H650.026V716.469ZM650.026 664.242H602.791V614.634H650.026V664.242ZM650.026 612.014H602.791V562.407H650.026V612.014ZM650.026 559.786H602.791V510.179H650.026V559.786ZM650.026 507.535H602.791V457.928H650.026V507.535ZM650.026 455.307H602.791V405.7H650.026V455.307ZM650.026 403.079H602.791V353.472H650.026V403.079ZM650.026 350.852H602.791V301.244H650.026V350.852ZM650.026 298.599H602.791V248.992H650.026V298.599ZM650.026 246.373H602.791V196.764H650.026V246.373ZM650.026 194.145H602.791V144.513H650.026V194.145ZM650.026 141.917H602.791V92.3097H650.026V141.917ZM650.026 89.6653H602.791V40.058H650.026V89.6653ZM705.475 1082.11H652.807V1032.5H705.475V1082.11ZM705.475 1029.88H652.807V980.275H705.475V1029.88ZM705.475 977.656H652.807V928.049H705.475V977.656ZM705.475 925.404H652.807V875.796H705.475V925.404ZM705.475 873.176H652.807V823.544H705.475V873.176ZM705.475 820.949H652.807V771.341H705.475V820.949ZM705.475 768.722H652.807V719.112H705.475V768.722ZM705.475 716.469H652.807V666.862H705.475V716.469ZM705.475 664.242H652.807V614.634H705.475V664.242ZM705.475 612.014H652.807V562.407H705.475V612.014ZM705.475 559.786H652.807V510.179H705.475V559.786ZM705.475 507.535H652.807V457.928H705.475V507.535ZM705.475 455.307H652.807V405.7H705.475V455.307ZM705.475 403.079H652.807V353.472H705.475V403.079ZM705.475 350.852H652.807V301.244H705.475V350.852ZM705.475 298.599H652.807V248.992H705.475V298.599ZM705.475 246.373H652.807V196.764H705.475V246.373ZM705.475 194.145H652.807V144.513H705.475V194.145ZM760.924 1082.11H708.257V1032.5H760.924V1082.11ZM760.924 1029.88H708.257V980.275H760.924V1029.88ZM760.924 977.656H708.257V928.049H760.924V977.656ZM760.924 925.404H708.257V875.796H760.924V925.404ZM760.924 873.176H708.257V823.544H760.924V873.176ZM760.924 820.949H708.257V771.341H760.924V820.949ZM760.924 768.722H708.257V719.112H760.924V768.722ZM760.924 716.469H708.257V666.862H760.924V716.469ZM760.924 664.242H708.257V614.634H760.924V664.242ZM760.924 612.014H708.257V562.407H760.924V612.014ZM760.924 559.786H708.257V510.179H760.924V559.786ZM760.924 507.535H708.257V457.928H760.924V507.535ZM760.924 455.307H708.257V405.7H760.924V455.307ZM760.924 403.079H708.257V353.472H760.924V403.079ZM760.924 350.852H708.257V301.244H760.924V350.852ZM760.924 298.599H708.257V248.992H760.924V298.599ZM760.924 246.373H708.257V196.764H760.924V246.373ZM760.924 194.145H708.257V144.513H760.924V194.145ZM816.373 1082.11H763.706V1032.5H816.373V1082.11ZM816.373 1029.88H763.706V980.275H816.373V1029.88ZM816.373 977.656H763.706V928.049H816.373V977.656ZM816.373 925.404H763.706V875.796H816.373V925.404ZM816.373 873.176H763.706V823.544H816.373V873.176ZM816.373 820.949H763.706V771.341H816.373V820.949ZM816.373 768.722H763.706V719.112H816.373V768.722ZM816.373 716.469H763.706V666.862H816.373V716.469ZM816.373 664.242H763.706V614.634H816.373V664.242ZM816.373 612.014H763.706V562.407H816.373V612.014ZM816.373 559.786H763.706V510.179H816.373V559.786ZM816.373 507.535H763.706V457.928H816.373V507.535ZM816.373 455.307H763.706V405.7H816.373V455.307ZM816.373 403.079H763.706V353.472H816.373V403.079ZM816.373 350.852H763.706V301.244H816.373V350.852ZM816.373 298.599H763.706V248.992H816.373V298.599ZM816.373 246.373H763.706V196.764H816.373V246.373ZM816.373 194.145H763.706V144.513H816.373V194.145ZM871.847 1082.11H819.179V1032.5H871.847V1082.11ZM871.847 1029.88H819.179V980.275H871.847V1029.88ZM871.847 977.656H819.179V928.049H871.847V977.656ZM871.847 925.404H819.179V875.796H871.847V925.404ZM871.847 873.176H819.179V823.544H871.847V873.176ZM871.847 820.949H819.179V771.341H871.847V820.949ZM871.847 768.722H819.179V719.112H871.847V768.722ZM871.847 716.469H819.179V666.862H871.847V716.469ZM871.847 664.242H819.179V614.634H871.847V664.242ZM871.847 612.014H819.179V562.407H871.847V612.014ZM871.847 559.786H819.179V510.179H871.847V559.786ZM871.847 507.535H819.179V457.928H871.847V507.535ZM871.847 455.307H819.179V405.7H871.847V455.307ZM871.847 403.079H819.179V353.472H871.847V403.079ZM871.847 350.852H819.179V301.244H871.847V350.852ZM871.847 298.599H819.179V248.992H871.847V298.599ZM871.847 246.373H819.179V196.764H871.847V246.373ZM871.847 194.145H819.179V144.513H871.847V194.145ZM927.295 1082.11H874.628V1032.5H927.295V1082.11ZM927.295 1029.88H874.628V980.275H927.295V1029.88ZM927.295 977.656H874.628V928.049H927.295V977.656ZM927.295 925.404H874.628V875.796H927.295V925.404ZM927.295 873.176H874.628V823.544H927.295V873.176ZM927.295 820.949H874.628V771.341H927.295V820.949ZM927.295 768.722H874.628V719.112H927.295V768.722ZM927.295 716.469H874.628V666.862H927.295V716.469ZM927.295 664.242H874.628V614.634H927.295V664.242ZM927.295 612.014H874.628V562.407H927.295V612.014ZM927.295 559.786H874.628V510.179H927.295V559.786ZM927.295 507.535H874.628V457.928H927.295V507.535ZM927.295 455.307H874.628V405.7H927.295V455.307ZM927.295 403.079H874.628V353.472H927.295V403.079ZM927.295 350.852H874.628V301.244H927.295V350.852ZM927.295 298.599H874.628V248.992H927.295V298.599ZM927.295 246.373H874.628V196.764H927.295V246.373ZM927.295 194.145H874.628V144.513H927.295V194.145ZM927.295 141.917H874.628V92.3097H927.295V141.917ZM982.745 1082.11H930.08V1032.5H982.747L982.745 1082.11ZM982.745 1029.88H930.08V980.275H982.747L982.745 1029.88ZM982.745 977.656H930.08V928.049H982.747L982.745 977.656ZM982.745 925.404H930.08V875.796H982.747L982.745 925.404ZM982.745 873.176H930.08V823.544H982.747L982.745 873.176ZM982.745 820.949H930.08V771.341H982.747L982.745 820.949ZM982.745 768.722H930.08V719.112H982.747L982.745 768.722ZM982.745 716.469H930.08V666.862H982.747L982.745 716.469ZM982.745 664.242H930.08V614.634H982.747L982.745 664.242ZM982.745 612.014H930.08V562.407H982.747L982.745 612.014ZM982.745 559.786H930.08V510.179H982.747L982.745 559.786ZM982.745 507.535H930.08V457.928H982.747L982.745 507.535ZM982.745 455.307H930.08V405.7H982.747L982.745 455.307ZM982.745 403.079H930.08V353.472H982.747L982.745 403.079ZM982.745 350.852H930.08V301.244H982.747L982.745 350.852ZM982.745 298.599H930.08V248.992H982.747L982.745 298.599ZM982.745 246.373H930.08V196.764H982.747L982.745 246.373ZM982.745 194.145H930.08V144.513H982.747L982.745 194.145ZM1038.19 1082.11H985.527V1032.5H1038.19V1082.11ZM1038.19 1029.88H985.527V980.275H1038.19V1029.88ZM1038.19 977.656H985.527V928.049H1038.19V977.656ZM1038.19 925.404H985.527V875.796H1038.19V925.404ZM1038.19 873.176H985.527V823.544H1038.19V873.176ZM1038.19 820.949H985.527V771.341H1038.19V820.949ZM1038.19 768.722H985.527V719.112H1038.19V768.722ZM1038.19 716.469H985.527V666.862H1038.19V716.469ZM1038.19 664.242H985.527V614.634H1038.19V664.242ZM1038.19 612.014H985.527V562.407H1038.19V612.014ZM1038.19 559.786H985.527V510.179H1038.19V559.786ZM1038.19 507.535H985.527V457.928H1038.19V507.535ZM1038.19 455.307H985.527V405.7H1038.19V455.307ZM1038.19 403.079H985.527V353.472H1038.19V403.079ZM1038.19 350.852H985.527V301.244H1038.19V350.852ZM1038.19 298.599H985.527V248.992H1038.19V298.599ZM1038.19 246.373H985.527V196.764H1038.19V246.373ZM1038.19 194.145H985.527V144.513H1038.19V194.145ZM1038.19 141.917H985.527V92.3097H1038.19V141.917ZM1093.67 1082.11H1041V1032.5H1093.67V1082.11ZM1093.67 1029.89H1041V980.277H1093.67V1029.89ZM1093.67 977.657H1041V928.05H1093.67V977.657ZM1093.67 925.406H1041V875.797H1093.67V925.406ZM1093.67 873.178H1041V823.545H1093.67V873.178ZM1093.67 820.95H1041V771.343H1093.67V820.95ZM1093.67 768.723H1041V719.112H1093.67V768.723ZM1093.67 716.47H1041V666.863H1093.67V716.47ZM1093.67 664.244H1041V614.635H1093.67V664.244ZM1093.67 612.016H1041V562.408H1093.67V612.016ZM1093.67 559.788H1041V510.18H1093.67V559.788ZM1093.67 507.536H1041V457.929H1093.67V507.536ZM1093.67 455.308H1041V405.701H1093.67V455.308ZM1093.67 403.08H1041V353.472H1093.67V403.08ZM1093.67 350.854H1041V301.245H1093.67V350.854ZM1093.67 298.601H1041V248.993H1093.67V298.601ZM1093.67 246.374H1041V196.765H1093.67V246.374ZM1093.67 194.146H1041V144.514H1093.67V194.146ZM1149.12 1082.11H1096.45V1032.5H1149.12L1149.12 1082.11ZM1149.12 1029.89H1096.45V980.277H1149.12L1149.12 1029.89ZM1149.12 977.657H1096.45V928.05H1149.12L1149.12 977.657ZM1149.12 925.406H1096.45V875.797H1149.12L1149.12 925.406ZM1149.12 873.178H1096.45V823.545H1149.12L1149.12 873.178ZM1149.12 820.95H1096.45V771.343H1149.12L1149.12 820.95ZM1149.12 768.723H1096.45V719.112H1149.12L1149.12 768.723ZM1149.12 716.47H1096.45V666.863H1149.12L1149.12 716.47ZM1149.12 664.244H1096.45V614.635H1149.12L1149.12 664.244ZM1149.12 612.016H1096.45V562.408H1149.12L1149.12 612.016ZM1149.12 559.788H1096.45V510.18H1149.12L1149.12 559.788ZM1149.12 507.536H1096.45V457.929H1149.12L1149.12 507.536ZM1149.12 455.308H1096.45V405.701H1149.12L1149.12 455.308ZM1149.12 403.08H1096.45V353.472H1149.12L1149.12 403.08ZM1149.12 350.854H1096.45V301.245H1149.12L1149.12 350.854ZM1149.12 298.601H1096.45V248.993H1149.12L1149.12 298.601ZM1149.12 246.374H1096.45V196.765H1149.12L1149.12 246.374ZM1149.12 194.146H1096.45V144.514H1149.12L1149.12 194.146ZM1204.57 1082.11H1151.9V1032.5H1204.57V1082.11ZM1204.57 1029.89H1151.9V980.277H1204.57V1029.89ZM1204.57 977.657H1151.9V928.05H1204.57V977.657ZM1204.57 925.406H1151.9V875.797H1204.57V925.406ZM1204.57 873.178H1151.9V823.545H1204.57V873.178ZM1204.57 820.95H1151.9V771.343H1204.57V820.95ZM1204.57 768.723H1151.9V719.112H1204.57V768.723ZM1204.57 716.47H1151.9V666.863H1204.57V716.47ZM1204.57 664.244H1151.9V614.635H1204.57V664.244ZM1204.57 612.016H1151.9V562.408H1204.57V612.016ZM1204.57 559.788H1151.9V510.18H1204.57V559.788ZM1204.57 507.536H1151.9V457.929H1204.57V507.536ZM1204.57 455.308H1151.9V405.701H1204.57V455.308ZM1204.57 403.08H1151.9V353.472H1204.57V403.08ZM1204.57 350.854H1151.9V301.245H1204.57V350.854ZM1204.57 298.601H1151.9V248.993H1204.57V298.601ZM1204.57 246.374H1151.9V196.765H1204.57V246.374ZM1204.57 194.146H1151.9V144.514H1204.57V194.146ZM1204.57 141.918H1151.9V92.3109H1204.57V141.918ZM1260.02 1134.34H1207.35V1084.73H1260.02V1134.34ZM1260.02 1082.11H1207.35V1032.5H1260.02V1082.11ZM1260.02 1029.88H1207.35V980.275H1260.02V1029.88ZM1260.02 977.656H1207.35V928.049H1260.02V977.656ZM1260.02 925.404H1207.35V875.796H1260.02V925.404ZM1260.02 873.176H1207.35V823.544H1260.02V873.176ZM1260.02 820.949H1207.35V771.341H1260.02V820.949ZM1260.02 768.722H1207.35V719.112H1260.02V768.722ZM1260.02 716.469H1207.35V666.862H1260.02V716.469ZM1260.02 664.242H1207.35V614.634H1260.02V664.242ZM1260.02 612.014H1207.35V562.407H1260.02V612.014ZM1260.02 559.786H1207.35V510.179H1260.02V559.786ZM1260.02 507.535H1207.35V457.928H1260.02V507.535ZM1260.02 455.307H1207.35V405.7H1260.02V455.307ZM1260.02 403.079H1207.35V353.472H1260.02V403.079ZM1260.02 350.852H1207.35V301.244H1260.02V350.852ZM1260.02 298.599H1207.35V248.992H1260.02V298.599ZM1260.02 246.373H1207.35V196.764H1260.02V246.373ZM1260.02 194.145H1207.35V144.513H1260.02V194.145ZM1315.49 1082.11H1262.83V1032.5H1315.49V1082.11ZM1315.49 1029.88H1262.83V980.275H1315.49V1029.88ZM1315.49 977.656H1262.83V928.049H1315.49V977.656ZM1315.49 925.404H1262.83V875.796H1315.49V925.404ZM1315.49 873.176H1262.83V823.544H1315.49V873.176ZM1315.49 820.949H1262.83V771.341H1315.49V820.949ZM1315.49 768.722H1262.83V719.112H1315.49V768.722ZM1315.49 716.469H1262.83V666.862H1315.49V716.469ZM1315.49 664.242H1262.83V614.634H1315.49V664.242ZM1315.49 612.014H1262.83V562.407H1315.49V612.014ZM1315.49 559.786H1262.83V510.179H1315.49V559.786ZM1315.49 507.535H1262.83V457.928H1315.49V507.535ZM1315.49 455.307H1262.83V405.7H1315.49V455.307ZM1315.49 403.079H1262.83V353.472H1315.49V403.079ZM1315.49 350.852H1262.83V301.244H1315.49V350.852ZM1315.49 298.599H1262.83V248.992H1315.49V298.599ZM1315.49 246.373H1262.83V196.764H1315.49V246.373ZM1315.49 194.145H1262.83V144.513H1315.49V194.145ZM1315.49 141.917H1262.83V92.3097H1315.49V141.917ZM1315.49 89.6653H1262.83V40.058H1315.49V89.6653ZM1370.94 1082.11H1318.28V1032.5H1370.94L1370.94 1082.11ZM1370.94 1029.88H1318.28V980.275H1370.94L1370.94 1029.88ZM1370.94 977.656H1318.28V928.049H1370.94L1370.94 977.656ZM1370.94 925.404H1318.28V875.796H1370.94L1370.94 925.404ZM1370.94 873.176H1318.28V823.544H1370.94L1370.94 873.176ZM1370.94 820.949H1318.28V771.341H1370.94L1370.94 820.949ZM1370.94 768.722H1318.28V719.112H1370.94L1370.94 768.722ZM1370.94 716.469H1318.28V666.862H1370.94L1370.94 716.469ZM1370.94 664.242H1318.28V614.634H1370.94L1370.94 664.242ZM1370.94 612.014H1318.28V562.407H1370.94L1370.94 612.014ZM1370.94 559.786H1318.28V510.179H1370.94L1370.94 559.786ZM1370.94 507.535H1318.28V457.928H1370.94L1370.94 507.535ZM1370.94 455.307H1318.28V405.7H1370.94L1370.94 455.307ZM1370.94 403.079H1318.28V353.472H1370.94L1370.94 403.079ZM1370.94 350.852H1318.28V301.244H1370.94L1370.94 350.852ZM1370.94 298.599H1318.28V248.992H1370.94L1370.94 298.599ZM1370.94 246.373H1318.28V196.764H1370.94L1370.94 246.373ZM1370.94 194.145H1318.28V144.513H1370.94L1370.94 194.145ZM1426.39 1082.11H1373.72V1032.5H1426.39V1082.11ZM1426.39 1029.88H1373.72V980.275H1426.39V1029.88ZM1426.39 977.656H1373.72V928.049H1426.39V977.656ZM1426.39 925.404H1373.72V875.796H1426.39V925.404ZM1426.39 873.176H1373.72V823.544H1426.39V873.176ZM1426.39 820.949H1373.72V771.341H1426.39V820.949ZM1426.39 768.722H1373.72V719.112H1426.39V768.722ZM1426.39 716.469H1373.72V666.862H1426.39V716.469ZM1426.39 664.242H1373.72V614.634H1426.39V664.242ZM1426.39 612.014H1373.72V562.407H1426.39V612.014ZM1426.39 559.786H1373.72V510.179H1426.39V559.786ZM1426.39 507.535H1373.72V457.928H1426.39V507.535ZM1426.39 455.307H1373.72V405.7H1426.39V455.307ZM1426.39 403.079H1373.72V353.472H1426.39V403.079ZM1426.39 350.852H1373.72V301.244H1426.39V350.852ZM1426.39 298.599H1373.72V248.992H1426.39V298.599ZM1426.39 246.373H1373.72V196.764H1426.39V246.373ZM1426.39 194.145H1373.72V144.513H1426.39V194.145ZM1426.39 141.917H1373.72V92.3097H1426.39V141.917ZM1481.84 1082.11H1429.17V1032.5H1481.84V1082.11ZM1481.84 1029.88H1429.17V980.275H1481.84V1029.88ZM1481.84 977.656H1429.17V928.049H1481.84V977.656ZM1481.84 925.404H1429.17V875.796H1481.84V925.404ZM1481.84 873.176H1429.17V823.544H1481.84V873.176ZM1481.84 820.949H1429.17V771.341H1481.84V820.949ZM1481.84 768.722H1429.17V719.112H1481.84V768.722ZM1481.84 716.469H1429.17V666.862H1481.84V716.469ZM1481.84 664.242H1429.17V614.634H1481.84V664.242ZM1481.84 612.014H1429.17V562.407H1481.84V612.014ZM1481.84 559.786H1429.17V510.179H1481.84V559.786ZM1481.84 507.535H1429.17V457.928H1481.84V507.535ZM1481.84 455.307H1429.17V405.7H1481.84V455.307ZM1481.84 403.079H1429.17V353.472H1481.84V403.079ZM1481.84 350.852H1429.17V301.244H1481.84V350.852ZM1481.84 298.599H1429.17V248.992H1481.84V298.599ZM1481.84 246.373H1429.17V196.764H1481.84V246.373ZM1481.84 194.145H1429.17V144.513H1481.84V194.145ZM1537.32 1082.11H1484.65V1032.5H1537.32V1082.11ZM1537.32 1029.88H1484.65V980.275H1537.32V1029.88ZM1537.32 977.656H1484.65V928.049H1537.32V977.656ZM1537.32 925.404H1484.65V875.796H1537.32V925.404ZM1537.32 873.176H1484.65V823.544H1537.32V873.176ZM1537.32 820.949H1484.65V771.341H1537.32V820.949ZM1537.32 768.722H1484.65V719.112H1537.32V768.722ZM1537.32 716.469H1484.65V666.862H1537.32V716.469ZM1537.32 664.242H1484.65V614.634H1537.32V664.242ZM1537.32 612.014H1484.65V562.407H1537.32V612.014ZM1537.32 559.786H1484.65V510.179H1537.32V559.786ZM1537.32 507.535H1484.65V457.928H1537.32V507.535ZM1537.32 455.307H1484.65V405.7H1537.32V455.307ZM1537.32 403.079H1484.65V353.472H1537.32V403.079ZM1537.32 350.852H1484.65V301.244H1537.32V350.852ZM1537.32 298.599H1484.65V248.992H1537.32V298.599ZM1537.32 246.373H1484.65V196.764H1537.32V246.373ZM1537.32 194.145H1484.65V144.513H1537.32V194.145ZM1592.76 1082.11H1540.1V1032.5H1592.76V1082.11ZM1592.76 1029.88H1540.1V980.275H1592.76V1029.88ZM1592.76 977.656H1540.1V928.049H1592.76V977.656ZM1592.76 925.404H1540.1V875.796H1592.76V925.404ZM1592.76 873.176H1540.1V823.544H1592.76V873.176ZM1592.76 820.949H1540.1V771.341H1592.76V820.949ZM1592.76 768.722H1540.1V719.112H1592.76V768.722ZM1592.76 716.469H1540.1V666.862H1592.76V716.469ZM1592.76 664.242H1540.1V614.634H1592.76V664.242ZM1592.76 612.014H1540.1V562.407H1592.76V612.014ZM1592.76 559.786H1540.1V510.179H1592.76V559.786ZM1592.76 507.535H1540.1V457.928H1592.76V507.535ZM1592.76 455.307H1540.1V405.7H1592.76V455.307ZM1592.76 403.079H1540.1V353.472H1592.76V403.079ZM1592.76 350.852H1540.1V301.244H1592.76V350.852ZM1592.76 298.599H1540.1V248.992H1592.76V298.599ZM1592.76 246.373H1540.1V196.764H1592.76V246.373ZM1592.76 194.145H1540.1V144.513H1592.76V194.145ZM1592.76 141.917H1540.1V92.3097H1592.76V141.917ZM1648.21 1082.11H1595.55V1032.5H1648.21V1082.11ZM1648.21 1029.88H1595.55V980.275H1648.21V1029.88ZM1648.21 977.656H1595.55V928.049H1648.21V977.656ZM1648.21 925.404H1595.55V875.796H1648.21V925.404ZM1648.21 873.176H1595.55V823.544H1648.21V873.176ZM1648.21 820.949H1595.55V771.341H1648.21V820.949ZM1648.21 768.722H1595.55V719.112H1648.21V768.722ZM1648.21 716.469H1595.55V666.862H1648.21V716.469ZM1648.21 664.242H1595.55V614.634H1648.21V664.242ZM1648.21 612.014H1595.55V562.407H1648.21V612.014ZM1648.21 559.786H1595.55V510.179H1648.21V559.786ZM1648.21 507.535H1595.55V457.928H1648.21V507.535ZM1648.21 455.307H1595.55V405.7H1648.21V455.307ZM1648.21 403.079H1595.55V353.472H1648.21V403.079ZM1648.21 350.852H1595.55V301.244H1648.21V350.852ZM1648.21 298.599H1595.55V248.992H1648.21V298.599ZM1648.21 246.373H1595.55V196.764H1648.21V246.373ZM1648.21 194.145H1595.55V144.513H1648.21V194.145ZM1703.66 1082.11H1650.99V1032.5H1703.66V1082.11ZM1703.66 1029.88H1650.99V980.275H1703.66V1029.88ZM1703.66 977.656H1650.99V928.049H1703.66V977.656ZM1703.66 925.404H1650.99V875.796H1703.66V925.404ZM1703.66 873.176H1650.99V823.544H1703.66V873.176ZM1703.66 820.949H1650.99V771.341H1703.66V820.949ZM1703.66 768.722H1650.99V719.112H1703.66V768.722ZM1703.66 716.469H1650.99V666.862H1703.66V716.469ZM1703.66 664.242H1650.99V614.634H1703.66V664.242ZM1703.66 612.014H1650.99V562.407H1703.66V612.014ZM1703.66 559.786H1650.99V510.179H1703.66V559.786ZM1703.66 507.535H1650.99V457.928H1703.66V507.535ZM1703.66 455.307H1650.99V405.7H1703.66V455.307ZM1703.66 403.079H1650.99V353.472H1703.66V403.079ZM1703.66 350.852H1650.99V301.244H1703.66V350.852ZM1703.66 298.599H1650.99V248.992H1703.66V298.599ZM1703.66 246.373H1650.99V196.764H1703.66V246.373ZM1703.66 194.145H1650.99V144.513H1703.66V194.145ZM1703.66 141.917H1650.99V92.3097H1703.66V141.917ZM1703.66 89.6653H1650.99V40.058H1703.66V89.6653ZM1759.14 1082.11H1706.47V1032.5H1759.14V1082.11ZM1759.14 1029.88H1706.47V980.275H1759.14V1029.88ZM1759.14 977.656H1706.47V928.049H1759.14V977.656ZM1759.14 925.404H1706.47V875.796H1759.14V925.404ZM1759.14 873.176H1706.47V823.544H1759.14V873.176ZM1759.14 820.949H1706.47V771.341H1759.14V820.949ZM1759.14 768.722H1706.47V719.112H1759.14V768.722ZM1759.14 716.469H1706.47V666.862H1759.14V716.469ZM1759.14 664.242H1706.47V614.634H1759.14V664.242ZM1759.14 612.014H1706.47V562.407H1759.14V612.014ZM1759.14 559.786H1706.47V510.179H1759.14V559.786ZM1759.14 507.535H1706.47V457.928H1759.14V507.535ZM1759.14 455.307H1706.47V405.7H1759.14V455.307ZM1759.14 403.079H1706.47V353.472H1759.14V403.079ZM1759.14 350.852H1706.47V301.244H1759.14V350.852ZM1759.14 298.599H1706.47V248.992H1759.14V298.599ZM1759.14 246.373H1706.47V196.764H1759.14V246.373ZM1759.14 194.145H1706.47V144.513H1759.14V194.145ZM1814.59 1082.11H1761.92V1032.5H1814.59V1082.11ZM1814.59 1029.88H1761.92V980.275H1814.59V1029.88ZM1814.59 977.656H1761.92V928.049H1814.59V977.656ZM1814.59 925.404H1761.92V875.796H1814.59V925.404ZM1814.59 873.176H1761.92V823.544H1814.59V873.176ZM1814.59 820.949H1761.92V771.341H1814.59V820.949ZM1814.59 768.722H1761.92V719.112H1814.59V768.722ZM1814.59 716.469H1761.92V666.862H1814.59V716.469ZM1814.59 664.242H1761.92V614.634H1814.59V664.242ZM1814.59 612.014H1761.92V562.407H1814.59V612.014ZM1814.59 559.786H1761.92V510.179H1814.59V559.786ZM1814.59 507.535H1761.92V457.928H1814.59V507.535ZM1814.59 455.307H1761.92V405.7H1814.59V455.307ZM1814.59 403.079H1761.92V353.472H1814.59V403.079ZM1814.59 350.852H1761.92V301.244H1814.59V350.852ZM1814.59 298.599H1761.92V248.992H1814.59V298.599ZM1814.59 246.373H1761.92V196.764H1814.59V246.373ZM1814.59 194.145H1761.92V144.513H1814.59V194.145ZM1814.59 141.917H1761.92V92.3097H1814.59V141.917ZM1870.03 1082.11H1817.37V1032.5H1870.03V1082.11ZM1870.03 1029.88H1817.37V980.275H1870.03V1029.88ZM1870.03 977.656H1817.37V928.049H1870.03V977.656ZM1870.03 925.404H1817.37V875.796H1870.03V925.404ZM1870.03 873.176H1817.37V823.544H1870.03V873.176ZM1870.03 820.949H1817.37V771.341H1870.03V820.949ZM1870.03 768.722H1817.37V719.112H1870.03V768.722ZM1870.03 716.469H1817.37V666.862H1870.03V716.469ZM1870.03 664.242H1817.37V614.634H1870.03V664.242ZM1870.03 612.014H1817.37V562.407H1870.03V612.014ZM1870.03 559.786H1817.37V510.179H1870.03V559.786ZM1870.03 507.535H1817.37V457.928H1870.03V507.535ZM1870.03 455.307H1817.37V405.7H1870.03V455.307ZM1870.03 403.079H1817.37V353.472H1870.03V403.079ZM1870.03 350.852H1817.37V301.244H1870.03V350.852ZM1870.03 298.599H1817.37V248.992H1870.03V298.599ZM1870.03 246.373H1817.37V196.764H1870.03V246.373ZM1870.03 194.145H1817.37V144.513H1870.03V194.145ZM1870.03 141.917H1817.37V92.3097H1870.03V141.917ZM1870.03 89.6653H1817.37V40.058H1870.03V89.6653Z" fill="#ECECEC"/>
</g>
<defs>
<filter id="filter0_d_329_1345" x="-20" y="-15.9922" width="1960" height="1193.8" filterUnits="userSpaceOnUse" color-interpolation-filters="sRGB">
<feFlood flood-opacity="0" result="BackgroundImageFix"/>
<feColorMatrix in="SourceAlpha" type="matrix" values="0 0 0 0 0 0 0 0 0 0 0 0 0 0 0 0 0 0 127 0" result="hardAlpha"/>
<feOffset dy="4"/>
<feGaussianBlur stdDeviation="10"/>
<feComposite in2="hardAlpha" operator="out"/>
<feColorMatrix type="matrix" values="0 0 0 0 0 0 0 0 0 0 0 0 0 0 0 0 0 0 0.25 0"/>
<feBlend mode="normal" in2="BackgroundImageFix" result="effect1_dropShadow_329_1345"/>
<feBlend mode="normal" in="SourceGraphic" in2="effect1_dropShadow_329_1345" result="shape"/>
</filter>
<clipPath id="clip0_329_1345">
<rect width="1920" height="1153.81" fill="white"/>
</clipPath>
</defs>
</svg>
